<svg width="19" height="19" viewBox="0 0 19 19" fill="none" xmlns="http://www.w3.org/2000/svg">
<g clip-path="url(#clip0_128_1499)">
<path d="M13.4583 0C10.351 0 7.91667 1.39096 7.91667 3.16667V6.63258C7.19942 6.44258 6.39746 6.33333 5.54167 6.33333C2.43438 6.33333 0 7.72429 0 9.5V15.8333C0 17.609 2.43438 19 5.54167 19C8.64896 19 11.0833 17.609 11.0833 15.8333V15.5285C11.822 15.7249 12.631 15.8333 13.4583 15.8333C16.5656 15.8333 19 14.4424 19 12.6667V3.16667C19 1.39096 16.5656 0 13.4583 0ZM13.4583 0.791667C16.0328 0.791667 18.2083 1.87942 18.2083 3.16667C18.2083 4.45392 16.0328 5.54167 13.4583 5.54167C10.8838 5.54167 8.70833 4.45392 8.70833 3.16667C8.70833 1.87942 10.8838 0.791667 13.4583 0.791667ZM5.54167 7.125C8.11617 7.125 10.2917 8.21275 10.2917 9.5C10.2917 10.7873 8.11617 11.875 5.54167 11.875C2.96717 11.875 0.791667 10.7873 0.791667 9.5C0.791667 8.21275 2.96717 7.125 5.54167 7.125ZM0.791667 11.1467C1.75196 12.0634 3.49837 12.6667 5.54167 12.6667C7.58496 12.6667 9.33138 12.0634 10.2917 11.1467V12.6667C10.2917 13.9539 8.11617 15.0417 5.54167 15.0417C2.96717 15.0417 0.791667 13.9539 0.791667 12.6667V11.1467ZM5.54167 18.2083C2.96717 18.2083 0.791667 17.1206 0.791667 15.8333V14.3133C1.75196 15.2301 3.49837 15.8333 5.54167 15.8333C7.58496 15.8333 9.33138 15.2301 10.2917 14.3133V15.8333C10.2917 17.1206 8.11617 18.2083 5.54167 18.2083ZM13.4583 15.0417C12.6215 15.0417 11.8069 14.9237 11.0833 14.7076V12.3627C11.8212 12.559 12.6295 12.6659 13.4583 12.6659C15.5016 12.6659 17.248 12.0626 18.2083 11.1459V12.6659C18.2083 13.9531 16.0328 15.0417 13.4583 15.0417ZM13.4583 11.875C12.6184 11.875 11.8069 11.7555 11.0833 11.5393V9.5C11.0833 9.39471 11.0738 9.291 11.0564 9.18888C11.799 9.38996 12.6105 9.5 13.4583 9.5C15.5016 9.5 17.248 8.89675 18.2083 7.98V9.5C18.2083 10.7873 16.0328 11.875 13.4583 11.875ZM13.4583 8.70833C12.422 8.70833 11.4491 8.53417 10.6194 8.21433C10.2093 7.67363 9.54592 7.21604 8.70833 6.8875V4.81413C9.66862 5.73088 11.415 6.33413 13.4583 6.33413C15.5016 6.33413 17.248 5.73088 18.2083 4.81413V6.33413C18.2083 7.62138 16.0328 8.70913 13.4583 8.70913V8.70833Z" fill="#798494"/>
</g>
<defs>
<clipPath id="clip0_128_1499">
<rect width="19" height="19" fill="white"/>
</clipPath>
</defs>
</svg>
