<svg width="57" height="57" viewBox="0 0 57 57" fill="none" xmlns="http://www.w3.org/2000/svg">
<path d="M42.2213 24.7129C42.87 24.7129 43.4597 24.7736 44.1083 24.8343V11.968C44.1083 7.90179 40.8651 4.56384 36.9142 4.56384H32.3146V2.74314C32.3146 1.65072 31.4891 0.801056 30.4277 0.801056C29.3662 0.801056 28.5407 1.65072 28.5407 2.74314V4.56384H15.5676V2.74314C15.5676 1.65072 14.7421 0.801056 13.6807 0.801056C12.6192 0.801056 11.7937 1.65072 11.7937 2.74314V4.56384H7.25311C3.24326 4.56384 0 7.90179 0 11.968V37.3365C0 41.4027 3.24326 44.7406 7.19414 44.7406H24.7077C24.6488 44.0731 24.5898 43.4662 24.5898 42.7986C24.6488 32.8454 32.5505 24.7129 42.2213 24.7129ZM3.77397 15.7915V12.0287C3.77397 10.0866 5.30715 8.448 7.25311 8.448H11.7937V10.2687C11.7937 11.3611 12.6192 12.2108 13.6807 12.2108C14.7421 12.2108 15.5676 11.3611 15.5676 10.2687V8.448H28.5407V10.2687C28.5407 11.3611 29.3662 12.2108 30.4277 12.2108C31.4891 12.2108 32.3146 11.3611 32.3146 10.2687V8.448H36.9142C38.8012 8.448 40.3343 10.0259 40.3343 12.0287V15.7915H3.77397Z" fill="#212D5D"/>
<path d="M42.2212 28.5971C34.6143 28.5971 28.4226 34.9695 28.4226 42.7985C28.4226 50.6275 34.6143 57 42.2212 57C49.8281 57 56.0198 50.6275 56.0198 42.7985C56.0198 34.9695 49.8281 28.5971 42.2212 28.5971ZM47.4104 44.7406H42.2212C41.1598 44.7406 40.3342 43.891 40.3342 42.7985V36.1833C40.3342 35.0909 41.1598 34.2412 42.2212 34.2412C43.2826 34.2412 44.1082 35.0909 44.1082 36.1833V40.8564H47.4104C48.4718 40.8564 49.2974 41.7061 49.2974 42.7985C49.2974 43.891 48.4718 44.7406 47.4104 44.7406Z" fill="#212D5D"/>
</svg>
