<svg width="23" height="22" viewBox="0 0 23 22" fill="none" xmlns="http://www.w3.org/2000/svg">
<path d="M14.6776 18.3333H5.43054C4.20476 18.3319 3.02959 17.8485 2.16283 16.9893C1.29607 16.1301 0.808475 14.9651 0.807007 13.75L0.807007 4.58333C0.808475 3.3682 1.29607 2.20326 2.16283 1.34403C3.02959 0.484808 4.20476 0.00145554 5.43054 0L14.6776 0C15.9034 0.00145554 17.0786 0.484808 17.9453 1.34403C18.8121 2.20326 19.2997 3.3682 19.3012 4.58333V13.75C19.2997 14.9651 18.8121 16.1301 17.9453 16.9893C17.0786 17.8485 15.9034 18.3319 14.6776 18.3333ZM5.43054 1.83333C4.6948 1.83333 3.98919 2.12306 3.46894 2.63879C2.94869 3.15451 2.65642 3.85399 2.65642 4.58333V13.75C2.65642 14.4793 2.94869 15.1788 3.46894 15.6945C3.98919 16.2103 4.6948 16.5 5.43054 16.5H14.6776C15.4134 16.5 16.119 16.2103 16.6392 15.6945C17.1595 15.1788 17.4517 14.4793 17.4517 13.75V4.58333C17.4517 3.85399 17.1595 3.15451 16.6392 2.63879C16.119 2.12306 15.4134 1.83333 14.6776 1.83333H5.43054ZM23 17.4167V5.5C23 5.25689 22.9026 5.02373 22.7291 4.85182C22.5557 4.67991 22.3205 4.58333 22.0753 4.58333C21.83 4.58333 21.5948 4.67991 21.4214 4.85182C21.248 5.02373 21.1506 5.25689 21.1506 5.5V17.4167C21.1506 18.146 20.8583 18.8455 20.3381 19.3612C19.8178 19.8769 19.1122 20.1667 18.3765 20.1667H6.35525C6.11 20.1667 5.8748 20.2632 5.70139 20.4352C5.52797 20.6071 5.43054 20.8402 5.43054 21.0833C5.43054 21.3264 5.52797 21.5596 5.70139 21.7315C5.8748 21.9034 6.11 22 6.35525 22H18.3765C19.6022 21.9985 20.7774 21.5152 21.6442 20.656C22.5109 19.7967 22.9985 18.6318 23 17.4167Z" fill="#003E78"/>
</svg>
