<svg width="23" height="24" viewBox="0 0 23 24" fill="none" xmlns="http://www.w3.org/2000/svg">
<path fill-rule="evenodd" clip-rule="evenodd" d="M11.5 2.9751C6.20725 2.9751 1.91664 7.2657 1.91664 12.5584V15.4182C1.91646 15.4292 1.91646 15.4401 1.91664 15.451V17.7447C1.91664 19.1146 3.02715 20.2251 4.39704 20.2251C5.76692 20.2251 6.87743 19.1146 6.87743 17.7447V15.6737C6.87743 13.8128 5.23403 12.9509 3.83331 13.2367V12.5584C3.83331 8.32425 7.2658 4.89176 11.5 4.89176C15.7342 4.89176 19.1666 8.32425 19.1666 12.5584V13.2266C17.7663 12.9404 16.1225 13.7996 16.1225 15.6624V17.7447C16.1225 18.2013 16.2459 18.6291 16.4611 18.9966C15.6129 19.4183 14.4554 19.746 12.9375 19.746C12.4082 19.746 11.9791 20.175 11.9791 20.7043C11.9791 21.2336 12.4082 21.6626 12.9375 21.6626C15.2795 21.6626 17.0157 21.0019 18.2049 20.1933C18.3345 20.2142 18.4674 20.2251 18.6029 20.2251C19.9728 20.2251 21.0833 19.1146 21.0833 17.7447V15.4505C21.0835 15.4399 21.0835 15.4294 21.0833 15.4187V12.5584C21.0833 7.2657 16.7927 2.9751 11.5 2.9751ZM18.4498 18.2874C18.4985 18.3011 18.5498 18.3084 18.6029 18.3084C18.9143 18.3084 19.1666 18.056 19.1666 17.7447V15.518C19.1272 15.3371 19.0458 15.2454 18.9714 15.192C18.8745 15.1226 18.7315 15.0794 18.5686 15.0916C18.4058 15.1039 18.2708 15.168 18.1854 15.2512C18.113 15.3216 18.0392 15.4395 18.0392 15.6624V17.7447C18.0392 17.9548 18.1541 18.1381 18.3246 18.235C18.3673 18.2494 18.4092 18.2669 18.4498 18.2874ZM3.83331 17.7447V15.5222C3.87411 15.3444 3.95546 15.2538 4.02998 15.2009C4.1273 15.1318 4.27033 15.0894 4.43265 15.1022C4.59498 15.115 4.72958 15.1794 4.81487 15.2628C4.88731 15.3337 4.96076 15.4518 4.96076 15.6737V17.7447C4.96076 18.056 4.70837 18.3084 4.39704 18.3084C4.0857 18.3084 3.83331 18.056 3.83331 17.7447Z" fill="white"/>
</svg>
