<svg width="23" height="22" viewBox="0 0 23 22" fill="none" xmlns="http://www.w3.org/2000/svg">
<g clip-path="url(#clip0_36_63)">
<path d="M11.4998 21.9999C10.0249 21.9999 8.63436 21.3803 7.68369 20.3004C7.59265 20.1969 7.47382 20.1492 7.32336 20.1584C5.85902 20.2748 4.41098 19.7761 3.36832 18.7788C2.32565 17.7814 1.79952 16.4028 1.92602 14.9957C1.93848 14.8609 1.88482 14.7381 1.77748 14.6519C0.647607 13.7417 0.000732422 12.4107 0.000732422 11.0009C0.000732422 9.59102 0.648566 8.26002 1.77748 7.35069C1.88577 7.2636 1.93944 7.14077 1.92698 7.00602C1.80048 5.59894 2.32661 4.22027 3.36927 3.22294C4.41098 2.22652 5.84561 1.72144 7.32432 1.84335C7.46327 1.85435 7.59361 1.80485 7.68465 1.70127C8.63532 0.62052 10.0259 0.00177002 11.5007 0.00177002C12.9756 0.00177002 14.3661 0.621437 15.3168 1.70127C15.4088 1.80485 15.5276 1.85252 15.6771 1.84335C17.1348 1.72052 18.5895 2.2256 19.6322 3.22294C20.6749 4.22027 21.201 5.59894 21.0745 7.00602C21.062 7.14077 21.1157 7.2636 21.223 7.34977C22.3529 8.26002 22.9998 9.59102 22.9998 11.0009C22.9998 12.4107 22.3519 13.7417 21.223 14.651C21.1147 14.7381 21.0611 14.8609 21.0735 14.9957C21.2 16.4028 20.6739 17.7814 19.6312 18.7788C18.5895 19.7752 17.1568 20.2821 15.6762 20.1584C15.5382 20.151 15.4069 20.1978 15.3159 20.3004C14.3652 21.3812 12.9746 21.9999 11.4998 21.9999ZM7.36552 19.2389C7.77282 19.2389 8.1504 19.4067 8.41777 19.7101C9.1854 20.5828 10.3095 21.0833 11.5007 21.0833C12.6919 21.0833 13.8161 20.5828 14.5837 19.7101C14.8769 19.3764 15.3091 19.2023 15.7605 19.2444C16.9498 19.3407 18.1132 18.9355 18.9556 18.1298C19.798 17.324 20.2225 16.2103 20.1209 15.0727C20.0826 14.6382 20.2599 14.2294 20.6087 13.9489C21.5201 13.2137 22.0434 12.1384 22.0434 10.9999C22.0434 9.86144 21.5201 8.78527 20.6078 8.0501C20.2599 7.77052 20.0826 7.36077 20.1209 6.92627C20.2225 5.78869 19.798 4.67494 18.9556 3.86919C18.1123 3.06344 16.9402 2.65644 15.7605 2.75452C15.3005 2.79119 14.8779 2.62252 14.5837 2.28885C13.8161 1.41619 12.6919 0.915687 11.5007 0.915687C10.3095 0.915687 9.1854 1.41619 8.41777 2.28885C8.12357 2.62252 7.68752 2.79027 7.24094 2.75452C6.04973 2.65644 4.88823 3.06344 4.04586 3.86919C3.20348 4.67494 2.77894 5.78869 2.88052 6.92627C2.91886 7.36077 2.74157 7.7696 2.39273 8.0501C1.48136 8.78527 0.958107 9.86052 0.958107 10.999C0.958107 12.1375 1.48136 13.2137 2.39369 13.9489C2.74157 14.2284 2.91886 14.6382 2.88052 15.0727C2.77894 16.2103 3.20348 17.324 4.04586 18.1298C4.88823 18.9355 6.0574 19.3379 7.24094 19.2444C7.28311 19.2408 7.32432 19.2389 7.36552 19.2389ZM8.62477 7.33327C8.09577 7.33327 7.66644 7.74394 7.66644 8.24994C7.66644 8.75594 8.09577 9.1666 8.62477 9.1666C9.15377 9.1666 9.58311 8.75594 9.58311 8.24994C9.58311 7.74394 9.15377 7.33327 8.62477 7.33327ZM14.3748 12.8333C13.8458 12.8333 13.4164 13.2439 13.4164 13.7499C13.4164 14.2559 13.8458 14.6666 14.3748 14.6666C14.9038 14.6666 15.3331 14.2559 15.3331 13.7499C15.3331 13.2439 14.9038 12.8333 14.3748 12.8333ZM9.50261 14.9205L14.2943 8.04552C14.4409 7.83469 14.3815 7.55052 14.1611 7.41027C13.9426 7.27094 13.6445 7.32685 13.4969 7.53769L8.70527 14.4127C8.55865 14.6235 8.61806 14.9077 8.83848 15.0479C8.91994 15.1002 9.0129 15.1249 9.10394 15.1249C9.25823 15.1249 9.40965 15.0534 9.50261 14.9205Z" fill="white"/>
</g>
<defs>
<clipPath id="clip0_36_63">
<rect width="23" height="22" fill="white"/>
</clipPath>
</defs>
</svg>
