<svg width="24" height="24" viewBox="0 0 24 24" fill="none" xmlns="http://www.w3.org/2000/svg">
<g clip-path="url(#clip0_36_89)">
<path d="M9.9999 12.058C9.7239 12.058 9.4999 11.834 9.4999 11.558V5.558C9.4999 5.282 9.7229 5.058 9.9999 5.058C10.2769 5.058 10.4999 5.282 10.4999 5.558V11.558C10.4999 11.834 10.2769 12.058 9.9999 12.058ZM9.9999 12.997C9.4479 12.997 8.9999 13.445 8.9999 13.997C8.9999 14.549 9.4479 14.997 9.9999 14.997C10.5519 14.997 10.9999 14.549 10.9999 13.997C10.9999 13.445 10.5519 12.997 9.9999 12.997ZM16.7559 10.001C16.9939 9.862 17.0749 9.556 16.9359 9.317L12.2099 1.214C11.7669 0.454 10.9759 0 10.0959 0C9.2159 0 8.4249 0.454 7.9819 1.214L0.336899 14.319C-0.110101 15.086 -0.113101 16.003 0.328899 16.772C0.770899 17.542 1.5639 18.001 2.4509 18.001H9.0009C9.2769 18.001 9.5009 17.777 9.5009 17.501C9.5009 17.225 9.2769 17.001 9.0009 17.001H2.4509C1.9269 17.001 1.4579 16.73 1.1959 16.274C0.9339 15.818 0.9359 15.276 1.1999 14.823L8.8449 1.718C9.1079 1.268 9.5749 1 10.0959 1C10.6169 1 11.0839 1.268 11.3469 1.718L16.0729 9.821C16.2119 10.06 16.5169 10.139 16.7559 10.001ZM23.8549 23.854C23.7569 23.952 23.6289 24 23.5009 24C23.3729 24 23.2449 23.951 23.1469 23.854L20.1469 20.854C19.2849 21.559 18.1989 22 17.0009 22C14.2439 22 12.0009 19.757 12.0009 17C12.0009 14.243 14.2439 12 17.0009 12C19.7579 12 22.0009 14.243 22.0009 17C22.0009 18.198 21.5599 19.284 20.8549 20.146L23.8549 23.146C24.0499 23.341 24.0499 23.659 23.8549 23.854ZM21.0009 17C21.0009 14.794 19.2069 13 17.0009 13C14.7949 13 13.0009 14.794 13.0009 17C13.0009 19.206 14.7949 21 17.0009 21C19.2069 21 21.0009 19.206 21.0009 17Z" fill="white"/>
</g>
<defs>
<clipPath id="clip0_36_89">
<rect width="24" height="24" fill="white"/>
</clipPath>
</defs>
</svg>
