<svg width="23" height="24" viewBox="0 0 23 24" fill="none" xmlns="http://www.w3.org/2000/svg">
<path d="M7.18758 3.93345C7.71686 3.93345 8.14592 3.50439 8.14592 2.97512C8.14592 2.44585 7.71686 2.01678 7.18758 2.01678H5.75008C3.63299 2.01678 1.91675 3.73303 1.91675 5.85012V17.3501C1.91675 19.4672 3.63299 21.1835 5.75008 21.1835H7.18758C7.71685 21.1835 8.14591 20.7544 8.14591 20.2251C8.14591 19.6958 7.71685 19.2668 7.18758 19.2668H5.75008C4.69154 19.2668 3.83341 18.4087 3.83341 17.3501L3.83342 5.85012C3.83342 4.79157 4.69154 3.93345 5.75008 3.93345H7.18758Z" fill="white"/>
<path d="M21.7611 12.2778C22.1353 11.9035 22.1353 11.2967 21.7611 10.9225L17.9277 7.08914C17.5535 6.71489 16.9467 6.71489 16.5724 7.08914C16.1982 7.46339 16.1982 8.07018 16.5724 8.44443L18.7698 10.6418L7.66675 10.6418C7.13747 10.6418 6.70841 11.0708 6.70841 11.6001C6.70841 12.1294 7.13747 12.5585 7.66675 12.5585L18.7698 12.5585L16.5724 14.7558C16.1982 15.1301 16.1982 15.7368 16.5724 16.1111C16.9467 16.4853 17.5535 16.4853 17.9277 16.1111L21.7611 12.2778Z" fill="white"/>
</svg>
