<svg width="24" height="25" viewBox="0 0 24 25" fill="none" xmlns="http://www.w3.org/2000/svg">
<g clip-path="url(#clip0_126_2691)">
<path d="M18.731 7.8042C19.102 7.8042 19.46 7.9412 19.737 8.1912L24 11.9202V10.5772L20.407 7.4492C19.945 7.0332 19.349 6.8042 18.731 6.8042H14V4.8042H8V0.804199H2.5C1.122 0.804199 0 1.9262 0 3.3042V22.3042C0 23.6822 1.122 24.8042 2.5 24.8042H8V20.8042H14V16.4472L16.346 18.9962C16.818 19.5092 17.489 19.8042 18.186 19.8042H24V18.8042H18.186C17.768 18.8042 17.365 18.6272 17.082 18.3202L13.382 14.2992C12.831 13.6842 12.883 12.7372 13.498 12.1862C14.049 11.6922 14.892 11.6792 15.432 12.1312L18.611 15.2052L19.306 14.4862L16.1 11.3882C15.504 10.8872 14.725 10.7122 13.999 10.8572V7.8032H18.73L18.731 7.8042ZM2.5 1.8042H7V4.8042H1V3.3042C1 2.4772 1.673 1.8042 2.5 1.8042ZM1 9.9752C1.32 9.8622 1.655 9.8042 2 9.8042C3.654 9.8042 5 11.1502 5 12.8042C5 14.4582 3.654 15.8042 2 15.8042C1.655 15.8042 1.32 15.7472 1 15.6332V9.9752ZM7 23.8042H2.5C1.673 23.8042 1 23.1312 1 22.3042V20.8042H7V23.8042ZM13 11.3022C12.942 11.3452 12.885 11.3912 12.831 11.4402C11.806 12.3582 11.719 13.9402 12.642 14.9702L13.001 15.3602V19.8032H1V16.6772C1.324 16.7612 1.658 16.8032 2 16.8032C4.206 16.8032 6 15.0092 6 12.8032C6 10.5972 4.206 8.8032 2 8.8032C1.658 8.8032 1.324 8.8452 1 8.9292V5.8032H13V11.3012V11.3022ZM11 8.8042C11 9.3562 10.552 9.8042 10 9.8042C9.448 9.8042 9 9.3562 9 8.8042C9 8.2522 9.448 7.8042 10 7.8042C10.552 7.8042 11 8.2522 11 8.8042ZM11 16.8042C11 17.3562 10.552 17.8042 10 17.8042C9.448 17.8042 9 17.3562 9 16.8042C9 16.2522 9.448 15.8042 10 15.8042C10.552 15.8042 11 16.2522 11 16.8042Z" fill="#DFBC8A"/>
</g>
<defs>
<clipPath id="clip0_126_2691">
<rect width="24" height="24" fill="white" transform="translate(0 0.804199)"/>
</clipPath>
</defs>
</svg>
