<svg width="24" height="24" viewBox="0 0 24 24" fill="none" xmlns="http://www.w3.org/2000/svg">
<g clip-path="url(#clip0_401_1644)">
<path d="M22 20V9.998C23.111 9.95 24 9.032 24 7.909C24 6.808 23.4 5.799 22.437 5.275L18.492 3.13C18.25 3 17.945 3.087 17.813 3.331C17.681 3.574 17.771 3.877 18.013 4.009L21.959 6.154C22.601 6.503 23 7.175 23 7.909C23 8.511 22.511 9 21.909 9H2.09101C1.48901 9 1.00001 8.511 1.00001 7.909C1.00001 7.177 1.39901 6.504 2.04101 6.154L5.98801 4.011C6.23101 3.879 6.32101 3.575 6.18901 3.333C6.05601 3.091 5.75401 3.001 5.51101 3.132L1.56401 5.276C0.600014 5.802 0.00201416 6.811 0.00201416 7.909C0.00201416 9.031 0.891014 9.95 2.00201 9.998V20C0.899014 20 0.00201416 20.897 0.00201416 22C0.00201416 23.103 0.899014 24 2.00201 24H8.50201C8.77801 24 9.00201 23.776 9.00201 23.5C9.00201 23.224 8.77801 23 8.50201 23H2.00001C1.44901 23 1.00001 22.551 1.00001 22C1.00001 21.449 1.44901 21 2.00001 21H5.50001C5.77601 21 6.00001 20.776 6.00001 20.5V10H11.5V12H10.495C9.11901 12 8.00001 13.119 8.00001 14.495C8.00001 15.603 8.74401 16.59 9.81001 16.894L13.915 18.067C14.554 18.249 15 18.84 15 19.505C15 20.329 14.329 21 13.505 21H10.495C9.67101 21 9.00001 20.329 9.00001 19.505C9.00001 19.229 8.77601 19.005 8.50001 19.005C8.22401 19.005 8.00001 19.229 8.00001 19.505C8.00001 20.881 9.11901 22 10.495 22H11.5V23.5C11.5 23.776 11.724 24 12 24C12.276 24 12.5 23.776 12.5 23.5V22H13.505C14.881 22 16 20.881 16 19.505C16 18.397 15.256 17.41 14.19 17.106L10.084 15.933C9.44601 15.751 9.00001 15.16 9.00001 14.495C9.00001 13.671 9.67101 13 10.495 13H13.505C14.329 13 15 13.671 15 14.495C15 14.771 15.224 14.995 15.5 14.995C15.776 14.995 16 14.771 16 14.495C16 13.119 14.881 12 13.505 12H12.5V10H18V20.5C18 20.776 18.224 21 18.5 21H22C22.552 21 23 21.449 23 22C23 22.551 22.552 23 22 23H15.5C15.224 23 15 23.224 15 23.5C15 23.776 15.224 24 15.5 24H22C23.103 24 24 23.103 24 22C24 20.897 23.103 20 22 20ZM5.00001 20H3.00001V10H5.00001V20ZM19 10H21V20H19V10ZM8.18901 3.811C7.99401 3.616 7.99401 3.299 8.18901 3.104C8.38401 2.909 8.70101 2.909 8.89601 3.104L11.5 5.708V0.5C11.5 0.224 11.724 0 12 0C12.276 0 12.5 0.224 12.5 0.5V5.712L15.152 3.142C15.351 2.949 15.666 2.955 15.859 3.153C16.05 3.351 16.046 3.668 15.847 3.86L13.054 6.567C12.765 6.856 12.384 7.001 12.001 7.001C11.617 7.001 11.231 6.855 10.939 6.562L8.18901 3.811Z" fill="white"/>
</g>
<defs>
<clipPath id="clip0_401_1644">
<rect width="24" height="24" fill="white"/>
</clipPath>
</defs>
</svg>
