<svg width="28" height="48" viewBox="0 0 28 48" fill="none" xmlns="http://www.w3.org/2000/svg">
<path fill-rule="evenodd" clip-rule="evenodd" d="M17.8621 4C17.8621 1.79088 16.133 0 14 0C11.867 0 10.1379 1.79088 10.1379 4V4.40556C3.97654 5.757 0 10.3435 0 16C0 21.6564 3.9765 26.2428 10.1379 27.5944V35.156C8.3749 34.38 7.12166 33.2156 7.05407 33.1492C5.54423 31.6096 3.11511 31.6168 1.61407 33.1716C0.105821 34.7336 0.105782 37.2664 1.614 38.8284C2.62686 39.876 3.84658 40.7408 5.08395 41.4728C6.39752 42.2504 8.10842 43.054 10.1379 43.5404V44C10.1379 46.2092 11.867 48 14 48C16.133 48 17.8621 46.2092 17.8621 44V43.5944C24.0236 42.2428 28 37.6564 28 32C28 26.3436 24.0236 21.7572 17.8621 20.4056V12.6597C19.6877 13.356 20.4979 14.3246 20.5983 14.4448C21.879 16.1608 24.2584 16.5124 25.9508 15.2168C27.6659 13.9037 28.029 11.3991 26.761 9.62248C26.761 9.62248 26.763 9.6254 26.7583 9.61888C26.5116 9.27456 26.2528 8.96604 25.7897 8.5016C25.2417 7.95184 24.4546 7.26656 23.4068 6.59652C22.0003 5.69684 20.1596 4.849 17.8621 4.3796V4ZM10.1379 13.3588C10.1379 13.0619 9.84171 12.8659 9.59608 13.0185C8.11923 13.9352 7.72414 15.25 7.72414 16C7.72414 16.75 8.11923 18.0648 9.59608 18.9816C9.84171 19.134 10.1379 18.938 10.1379 18.6412V13.3588ZM17.8621 29.2888C17.8621 29.0248 18.1255 28.8504 18.3456 28.9828C19.8703 29.9008 20.2755 31.2404 20.2755 32C20.2755 32.76 19.8703 34.0992 18.3456 35.0172C18.1255 35.15 17.8621 34.9756 17.8621 34.7116V29.2888Z" fill="#F3B858"/>
</svg>
