<svg width="19" height="19" viewBox="0 0 19 19" fill="none" xmlns="http://www.w3.org/2000/svg">
<g clip-path="url(#clip0_25_2000)">
<path d="M16.8466 5.0667L9.29409 12.6192C8.542 13.3712 6.30948 13.7196 5.81073 13.2208C5.31198 12.7221 5.6524 10.4896 6.40448 9.73749L13.9649 2.17709C14.1514 1.97368 14.3771 1.81017 14.6285 1.69641C14.8798 1.58264 15.1517 1.52097 15.4276 1.51516C15.7034 1.50936 15.9777 1.5595 16.2336 1.66259C16.4895 1.76567 16.722 1.91957 16.9168 2.11495C17.1116 2.31034 17.2649 2.54316 17.3673 2.7994C17.4696 3.05563 17.5191 3.32995 17.5125 3.6058C17.506 3.88166 17.4435 4.15335 17.3291 4.40443C17.2146 4.6555 17.0505 4.88081 16.8466 5.0667Z" stroke="#798494" stroke-width="2" stroke-linecap="round" stroke-linejoin="round"/>
<path d="M8.7085 3.16666H4.75016C3.91031 3.16666 3.10491 3.50028 2.51104 4.09415C1.91718 4.68802 1.5835 5.49347 1.5835 6.33332V14.25C1.5835 15.0899 1.91718 15.8953 2.51104 16.4891C3.10491 17.083 3.91031 17.4167 4.75016 17.4167H13.4585C15.2081 17.4167 15.8335 15.9917 15.8335 14.25V10.2917" stroke="#798494" stroke-width="2" stroke-linecap="round" stroke-linejoin="round"/>
</g>
<defs>
<clipPath id="clip0_25_2000">
<rect width="19" height="19" fill="white"/>
</clipPath>
</defs>
</svg>
