<svg width="20" height="18" viewBox="0 0 20 18" fill="none" xmlns="http://www.w3.org/2000/svg">
<path d="M15.6712 0.397522H4.69893C3.66002 0.398789 2.66402 0.81956 1.9294 1.56754C1.19477 2.31552 0.781518 3.32963 0.780273 4.38743L0.780273 13.9632C0.781518 15.021 1.19477 16.0351 1.9294 16.7831C2.66402 17.5311 3.66002 17.9518 4.69893 17.9531H15.6712C16.7101 17.9518 17.7061 17.5311 18.4407 16.7831C19.1753 16.0351 19.5886 15.021 19.5898 13.9632V4.38743C19.5886 3.32963 19.1753 2.31552 18.4407 1.56754C17.7061 0.81956 16.7101 0.398789 15.6712 0.397522ZM4.69893 1.99348H15.6712C16.1405 1.99442 16.5987 2.13833 16.987 2.40668C17.3753 2.67503 17.6758 3.05555 17.8499 3.49927L11.8481 9.61101C11.4064 10.0589 10.8084 10.3104 10.1851 10.3104C9.56166 10.3104 8.96366 10.0589 8.52197 9.61101L2.52016 3.49927C2.69426 3.05555 2.9948 2.67503 3.38308 2.40668C3.77137 2.13833 4.22964 1.99442 4.69893 1.99348ZM15.6712 16.3571H4.69893C4.07536 16.3571 3.47732 16.1049 3.03639 15.656C2.59545 15.207 2.34774 14.5981 2.34774 13.9632V5.5844L7.41378 10.7394C8.14941 11.4865 9.14603 11.906 10.1851 11.906C11.2241 11.906 12.2207 11.4865 12.9563 10.7394L18.0224 5.5844V13.9632C18.0224 14.5981 17.7747 15.207 17.3337 15.656C16.8928 16.1049 16.2947 16.3571 15.6712 16.3571Z" fill="#8CA7C1"/>
</svg>
