<svg width="27" height="22" viewBox="0 0 27 22" fill="none" xmlns="http://www.w3.org/2000/svg">
<path d="M22.9502 17.875L6.0752 4.125M11.4752 9.57144C11.0551 9.94882 10.8002 10.4445 10.8002 10.9874C10.8002 12.1697 12.009 13.1282 13.5002 13.1282C14.1877 13.1282 14.8152 12.9244 15.2919 12.5889M22.9939 13.1282C23.9233 11.9944 24.3002 11.0698 24.3002 11.0698C24.3002 11.0698 21.8425 4.675 13.5002 4.675C13.0318 4.675 12.5821 4.69516 12.1502 4.7332M19.5752 15.9037C18.0256 16.7091 16.0307 17.2787 13.5002 17.245C5.26173 17.1352 2.7002 11.0698 2.7002 11.0698C2.7002 11.0698 3.89028 7.97324 7.42519 6.08971" stroke="#8CA7C1" stroke-width="2" stroke-linecap="round"/>
</svg>
