<svg width="99" height="46" viewBox="0 0 99 46" fill="none" xmlns="http://www.w3.org/2000/svg">
<g clip-path="url(#clip0_165_16)">
<path d="M55.4533 12.8778L51.4086 16.6895L44.2404 15.5808L51.8422 11.9459C51.9176 11.9122 52.0003 11.8984 52.0826 11.9058L55.1534 12.0505C55.2482 12.0535 55.3398 12.0848 55.4166 12.1404C55.4933 12.196 55.5516 12.2734 55.5839 12.3625C55.6162 12.4516 55.621 12.5483 55.5977 12.6402C55.5744 12.7321 55.5241 12.8149 55.4533 12.8778Z" fill="black"/>
<path d="M29.9219 20.6314L34.5481 16.8341C34.9369 16.5142 35.39 16.2817 35.8766 16.1524C36.3632 16.023 36.8719 15.9999 37.3682 16.0845L58.9562 19.4303L62.6459 17.3254C62.8584 17.207 63.1026 17.1582 63.3443 17.1861C63.5859 17.214 63.8126 17.317 63.9925 17.4807C64.1724 17.6444 64.2963 17.8605 64.3468 18.0984C64.3973 18.3364 64.3717 18.5841 64.2737 18.8068L62.0965 23.6112C62.0611 23.6911 62.0057 23.7605 61.9358 23.8129C61.8658 23.8653 61.7836 23.8989 61.697 23.9104C60.44 24.0448 55.4679 23.9792 49.5478 23.8162L53.508 33.7983C53.5425 33.8847 53.5527 33.9788 53.5376 34.0706C53.5225 34.1623 53.4826 34.2482 53.4223 34.319C53.3619 34.3897 53.2834 34.4427 53.1952 34.4721C53.107 34.5015 53.0124 34.5063 52.9217 34.4859L49.974 33.829C49.8122 33.7923 49.6685 33.6998 49.5682 33.5677L41.9699 23.5967C37.7238 23.4608 33.6561 23.3064 30.7891 23.1927C30.494 23.1857 30.2083 23.0882 29.9705 22.9134C29.7327 22.7385 29.5544 22.4948 29.4598 22.2153C29.3651 21.9358 29.3587 21.6339 29.4413 21.3506C29.524 21.0673 29.6917 20.8162 29.9219 20.6314Z" fill="black"/>
</g>
<circle cx="18" cy="23" r="4" fill="#09121E"/>
<circle cx="9" cy="23" r="3" fill="#09121E"/>
<circle cx="2" cy="23" r="2" fill="#09121E"/>
<circle cx="4" cy="4" r="4" transform="matrix(-1 0 0 1 85 19)" fill="#09121E"/>
<circle cx="3" cy="3" r="3" transform="matrix(-1 0 0 1 93 20)" fill="#09121E"/>
<circle cx="2" cy="2" r="2" transform="matrix(-1 0 0 1 99 21)" fill="#09121E"/>
<defs>
<clipPath id="clip0_165_16">
<rect width="33.4307" height="33.4307" fill="white" transform="matrix(-0.889435 0.457062 0.457062 0.889435 55.7344 0.726562)"/>
</clipPath>
</defs>
</svg>
