<svg width="99" height="46" viewBox="0 0 99 46" fill="none" xmlns="http://www.w3.org/2000/svg">
<g clip-path="url(#clip0_165_34)">
<path d="M41.5614 12.8778L45.606 16.6895L52.7743 15.5808L45.1725 11.9459C45.0971 11.9122 45.0143 11.8984 44.932 11.9058L41.8612 12.0505C41.7665 12.0535 41.6748 12.0848 41.5981 12.1404C41.5213 12.196 41.4631 12.2734 41.4308 12.3625C41.3985 12.4516 41.3936 12.5483 41.4169 12.6402C41.4402 12.7321 41.4905 12.8149 41.5614 12.8778Z" fill="black"/>
<path d="M67.0928 20.6314L62.4665 16.8341C62.0777 16.5142 61.6246 16.2817 61.1381 16.1524C60.6515 16.023 60.1428 15.9999 59.6464 16.0845L38.0584 19.4303L34.3687 17.3254C34.1563 17.207 33.912 17.1582 33.6704 17.1861C33.4288 17.214 33.202 17.317 33.0221 17.4807C32.8422 17.6444 32.7183 17.8605 32.6679 18.0984C32.6174 18.3364 32.6429 18.5841 32.7409 18.8068L34.9181 23.6112C34.9536 23.6911 35.0089 23.7605 35.0789 23.8129C35.1488 23.8653 35.231 23.8989 35.3177 23.9104C36.5746 24.0448 41.5468 23.9792 47.4669 23.8162L43.5066 33.7983C43.4722 33.8847 43.462 33.9788 43.4771 34.0706C43.4922 34.1623 43.532 34.2482 43.5924 34.319C43.6527 34.3897 43.7312 34.4427 43.8194 34.4721C43.9077 34.5015 44.0022 34.5063 44.093 34.4859L47.0407 33.829C47.2024 33.7923 47.3461 33.6998 47.4464 33.5677L55.0448 23.5967C59.2909 23.4608 63.3586 23.3064 66.2256 23.1927C66.5206 23.1857 66.8064 23.0882 67.0442 22.9134C67.2819 22.7385 67.4602 22.4948 67.5549 22.2153C67.6495 21.9358 67.656 21.6339 67.5733 21.3506C67.4906 21.0673 67.3229 20.8162 67.0928 20.6314Z" fill="black"/>
</g>
<circle cx="18" cy="23" r="4" fill="#09121E"/>
<circle cx="9" cy="23" r="3" fill="#09121E"/>
<circle cx="2" cy="23" r="2" fill="#09121E"/>
<circle cx="4" cy="4" r="4" transform="matrix(-1 0 0 1 85 19)" fill="#09121E"/>
<circle cx="3" cy="3" r="3" transform="matrix(-1 0 0 1 93 20)" fill="#09121E"/>
<circle cx="2" cy="2" r="2" transform="matrix(-1 0 0 1 99 21)" fill="#09121E"/>
<defs>
<clipPath id="clip0_165_34">
<rect width="33.4307" height="33.4307" fill="white" transform="translate(41.2803 0.726562) rotate(27.1977)"/>
</clipPath>
</defs>
</svg>
