<svg width="18" height="12" viewBox="0 0 18 12" fill="none" xmlns="http://www.w3.org/2000/svg">
<path d="M12.8554 5.91017C12.9645 5.70776 12.8889 5.45527 12.6865 5.34611C12.4841 5.23696 12.2316 5.31257 12.1224 5.51498L12.8554 5.91017ZM10.1097 10.1253L10.464 10.344L10.4703 10.3336L10.4762 10.3229L10.1097 10.1253ZM9.30969 10.7875L9.40548 11.1926L9.42274 11.1885L9.43955 11.1829L9.30969 10.7875ZM9.21543 6.7271C9.29753 6.51235 9.19006 6.27166 8.97523 6.18958C8.76049 6.10747 8.51982 6.21502 8.43771 6.42977L9.21543 6.7271ZM16.0924 4.28668L16.956 5.32074L17.5951 4.78702L16.7314 3.75287L16.0924 4.28668ZM4.45991 8.31285L2.16866 7.97045L2.04559 8.79398L4.33684 9.13638L4.45991 8.31285ZM1.82502 7.65443L1.57158 6.58246L0.761263 6.77404L1.0147 7.84601L1.82502 7.65443ZM1.57158 6.58246L0.901053 3.74633L0.0907332 3.93791L0.761263 6.77404L1.57158 6.58246ZM1.21042 3.24538L1.98523 3.0622L1.79365 2.25188L1.01884 2.43506L1.21042 3.24538ZM2.41805 3.22294L4.15011 5.61142L4.82418 5.12256L3.09213 2.73412L2.41805 3.22294ZM5.44858 6.09365L14.8463 3.8718L14.6547 3.06148L5.257 5.28333L5.44858 6.09365ZM12.1224 5.51498L9.74326 9.92773L10.4762 10.3229L12.8554 5.91017L12.1224 5.51498ZM9.2139 10.3823L8.40798 10.5728L8.59956 11.3832L9.40548 11.1926L9.2139 10.3823ZM7.91297 10.134L9.21543 6.7271L8.43771 6.42977L7.13522 9.83666L7.91297 10.134ZM8.40798 10.5728C8.15136 10.6335 7.9079 10.4435 7.89618 10.1894L7.06441 10.2277C7.0997 10.9936 7.82637 11.566 8.59956 11.3832L8.40798 10.5728ZM9.75545 9.90654C9.58387 10.1844 9.54643 10.2348 9.51221 10.2631C9.48666 10.2842 9.45404 10.3018 9.17972 10.3919L9.43955 11.1829C9.656 11.1119 9.86869 11.0489 10.0432 10.9045C10.209 10.7673 10.3262 10.5672 10.464 10.344L9.75545 9.90654ZM16.7322 5.99276L11.1556 7.31121L11.3472 8.12153L16.9238 6.80308L16.7322 5.99276ZM8.01156 8.05454L7.4491 8.18752L7.64068 8.99784L8.20314 8.86486L8.01156 8.05454ZM11.9719 3.87194L7.99855 0.457823L7.45584 1.08938L11.4292 4.50351L11.9719 3.87194ZM6.8972 0.189661L6.24388 0.344124L6.43546 1.15444L7.08878 0.99998L6.8972 0.189661ZM5.60179 2.39392L8.14951 5.23211L8.76908 4.67597L6.22142 1.8377L5.60179 2.39392ZM6.24388 0.344124C5.32125 0.562254 4.96849 1.6884 5.60179 2.39392L6.22142 1.8377C6.01033 1.60254 6.12791 1.22715 6.43546 1.15444L6.24388 0.344124ZM7.99855 0.457823C7.69544 0.197405 7.28608 0.0977226 6.8972 0.189661L7.08878 0.99998C7.21835 0.969347 7.35489 1.00256 7.45584 1.08938L7.99855 0.457823ZM4.15011 5.61142C4.44599 6.01942 4.9581 6.20961 5.44858 6.09365L5.257 5.28333C5.09351 5.32199 4.9228 5.25856 4.82418 5.12256L4.15011 5.61142ZM1.98523 3.0622C2.14872 3.02354 2.31942 3.08694 2.41805 3.22294L3.09213 2.73412C2.79625 2.32611 2.28413 2.13592 1.79365 2.25188L1.98523 3.0622ZM2.16866 7.97045C2.00029 7.94532 1.8642 7.82014 1.82502 7.65443L1.0147 7.84601C1.13222 8.34306 1.54048 8.71849 2.04559 8.79398L2.16866 7.97045ZM4.33684 9.13638C5.43691 9.30077 6.55824 9.25376 7.64068 8.99784L7.4491 8.18752C6.46975 8.41906 5.45521 8.46162 4.45991 8.31285L4.33684 9.13638ZM7.13522 9.83666C7.09897 9.93147 7.05708 10.0687 7.06441 10.2277L7.89618 10.1894C7.89637 10.1935 7.89566 10.1918 7.89776 10.1821C7.89993 10.1719 7.90434 10.1565 7.91297 10.134L7.13522 9.83666ZM16.956 5.32074C17.1543 5.55825 17.0334 5.92155 16.7322 5.99276L16.9238 6.80308C17.8273 6.58947 18.1902 5.49961 17.5951 4.78702L16.956 5.32074ZM0.901053 3.74633C0.848148 3.52256 0.986661 3.29828 1.21042 3.24538L1.01884 2.43506C0.347551 2.59377 -0.0679765 3.26661 0.0907332 3.93791L0.901053 3.74633ZM16.7314 3.75287C16.226 3.14775 15.4221 2.88006 14.6547 3.06148L14.8463 3.8718C15.3067 3.76295 15.7891 3.92355 16.0924 4.28668L16.7314 3.75287Z" fill="#212D5D"/>
</svg>
