<svg width="18" height="22" viewBox="0 0 18 22" fill="none" xmlns="http://www.w3.org/2000/svg">
<path d="M14.9564 8.26825V7.0183C14.9564 5.38868 14.3091 3.82582 13.1568 2.67351C12.0044 1.5212 10.4416 0.87384 8.81197 0.87384C7.18236 0.87384 5.6195 1.5212 4.46719 2.67351C3.31488 3.82582 2.66752 5.38868 2.66752 7.0183V8.26825C1.88573 8.60945 1.22032 9.17107 0.752641 9.88443C0.284966 10.5978 0.0353018 11.432 0.0341797 12.285V17.5516C0.0355735 18.7152 0.498421 19.8307 1.3212 20.6535C2.14397 21.4763 3.2595 21.9391 4.42308 21.9405H13.2009C14.3644 21.9391 15.48 21.4763 16.3027 20.6535C17.1255 19.8307 17.5884 18.7152 17.5898 17.5516V12.285C17.5886 11.432 17.339 10.5978 16.8713 9.88443C16.4036 9.17107 15.7382 8.60945 14.9564 8.26825ZM4.42308 7.0183C4.42308 5.85429 4.88548 4.73795 5.70855 3.91488C6.53163 3.0918 7.64796 2.6294 8.81197 2.6294C9.97598 2.6294 11.0923 3.0918 11.9154 3.91488C12.7385 4.73795 13.2009 5.85429 13.2009 7.0183V7.89607H4.42308V7.0183ZM15.8342 17.5516C15.8342 18.2501 15.5568 18.9199 15.0629 19.4137C14.5691 19.9075 13.8993 20.185 13.2009 20.185H4.42308C3.72467 20.185 3.05487 19.9075 2.56103 19.4137C2.06718 18.9199 1.78974 18.2501 1.78974 17.5516V12.285C1.78974 11.5866 2.06718 10.9168 2.56103 10.4229C3.05487 9.92907 3.72467 9.65163 4.42308 9.65163H13.2009C13.8993 9.65163 14.5691 9.92907 15.0629 10.4229C15.5568 10.9168 15.8342 11.5866 15.8342 12.285V17.5516Z" fill="#8CA7C1"/>
<path d="M8.81186 13.1627C8.57906 13.1627 8.35579 13.2552 8.19118 13.4198C8.02656 13.5844 7.93408 13.8077 7.93408 14.0405V15.7961C7.93408 16.0289 8.02656 16.2521 8.19118 16.4167C8.35579 16.5814 8.57906 16.6738 8.81186 16.6738C9.04466 16.6738 9.26793 16.5814 9.43254 16.4167C9.59716 16.2521 9.68964 16.0289 9.68964 15.7961V14.0405C9.68964 13.8077 9.59716 13.5844 9.43254 13.4198C9.26793 13.2552 9.04466 13.1627 8.81186 13.1627Z" fill="#8CA7C1"/>
</svg>
