<svg width="39" height="39" viewBox="0 0 39 39" fill="none" xmlns="http://www.w3.org/2000/svg">
<path d="M18.1381 32.7356C16.9346 31.7698 5.75867 20.9016 5.63375 20.7827C5.14016 20.2891 4.82938 19.7773 4.74406 19.308C4.6557 18.8205 4.805 18.394 5.20109 17.9979C5.56977 17.6292 6.0207 17.4342 6.50516 17.4342C7.09625 17.4342 7.70258 17.7145 8.20836 18.2234L13.2753 23.0923C13.3637 23.1776 13.4795 23.2202 13.5922 23.2202C13.6819 23.2204 13.7697 23.1941 13.8445 23.1446C13.9193 23.095 13.9778 23.0244 14.0127 22.9417C14.0475 22.8591 14.0571 22.7679 14.0403 22.6798C14.0235 22.5916 13.981 22.5104 13.9182 22.4463L5.82875 14.0918C5.01828 13.2813 4.63742 12.0412 5.60023 11.0784C5.96891 10.7098 6.41984 10.5148 6.9043 10.5148C7.49539 10.5148 8.10172 10.7951 8.6075 11.3039L16.8828 19.372C16.9712 19.4573 17.087 19.503 17.2027 19.503C17.3185 19.503 17.4373 19.4573 17.5257 19.369C17.7024 19.1923 17.7055 18.9059 17.5287 18.7261L7.58984 8.53734C7.12977 8.07726 6.8525 7.52578 6.80375 6.98953C6.75805 6.44414 6.95 5.93836 7.36133 5.52703C7.73 5.15836 8.18094 4.96336 8.66539 4.96336C9.25648 4.96336 9.86281 5.24367 10.3686 5.74945L20.5055 15.6335C20.5939 15.7188 20.7097 15.7645 20.8255 15.7645C20.9412 15.7645 21.0601 15.7188 21.1484 15.6305C21.3252 15.4537 21.3282 15.1673 21.1515 14.9876L13.7902 7.42219C13.3271 6.95906 13.0498 6.41062 13.0041 5.87437C12.9584 5.32898 13.1504 4.8232 13.5617 4.41187C13.9304 4.0432 14.3813 3.8482 14.8658 3.8482C15.4569 3.8482 16.0632 4.12851 16.569 4.63734C19.2685 7.28812 26.3159 14.2198 26.5536 14.4757C27.4585 15.1003 27.6413 14.1558 27.687 13.5434C27.7388 12.8304 26.9223 10.3411 27.3976 8.10164C28.1959 5.12484 30.4963 5.61234 30.548 5.63672C31.8095 6.22781 31.5688 7.11141 31.1209 8.88773L31.0752 9.23812C30.6059 11.5598 33.8295 18.4397 34.0672 18.9546C35.3316 21.7212 36.788 27.3305 31.9648 32.1537C26.6785 37.44 20.1338 34.7313 18.1381 32.7356Z" fill="url(#paint0_radial_25_2312)"/>
<path d="M24.9203 35.7033C21.6784 35.7033 18.921 34.1524 17.8333 33.0769C16.8552 32.2786 10.6823 26.3189 5.65494 21.4409C5.45079 21.2428 5.33197 21.1301 5.31978 21.1148C4.75001 20.5451 4.39658 19.9509 4.29603 19.3903C4.18025 18.7535 4.3783 18.1777 4.87798 17.6749C5.33501 17.2179 5.89564 16.9772 6.50501 16.9772C7.22103 16.9772 7.94009 17.3062 8.53119 17.9004L13.592 22.7632L5.49954 14.4087C4.5672 13.4763 4.09798 11.9316 5.27712 10.7555C5.73415 10.2984 6.29478 10.0577 6.90415 10.0577C7.62017 10.0577 8.33923 10.3868 8.93033 10.9809L17.1995 19.043L7.26369 8.85726C6.73353 8.32711 6.40751 7.67812 6.34962 7.03219C6.29173 6.34359 6.52939 5.71289 7.03822 5.20406C7.49525 4.74703 8.05587 4.50633 8.66525 4.50633C9.37822 4.50633 10.0973 4.83234 10.6914 5.42648L20.8253 15.3075L13.4641 7.74211C12.9309 7.2089 12.6049 6.55992 12.55 5.91398C12.4921 5.22844 12.7298 4.59773 13.2386 4.0889C13.6956 3.63187 14.2563 3.39117 14.8656 3.39117C15.5817 3.39117 16.3007 3.72023 16.8918 4.31437L19.0886 6.46851C23.0038 10.3076 26.2762 13.522 26.6266 13.8816C26.7972 14.0187 27.0196 14.0705 27.1141 14.0248C27.175 13.9943 27.242 13.8541 27.2299 13.5586C27.2116 13.0406 27.1384 12.3977 27.0623 11.7183C26.9099 10.3533 26.7515 8.93953 26.9495 8.00719C27.3822 6.3893 28.2323 5.70375 28.866 5.4082C29.7374 5.00601 30.5814 5.14617 30.7429 5.22234C32.3273 5.96578 32.0134 7.2089 31.5808 8.93344L31.5717 8.97609L31.5229 9.33258C31.206 10.8926 32.8331 15.2039 34.4601 18.717L34.4845 18.7657C35.5722 21.1423 37.5313 27.2391 32.2907 32.4797C29.8806 34.8837 27.2725 35.7033 24.9203 35.7033ZM6.50501 17.8912C6.14548 17.8912 5.80423 18.0405 5.52392 18.3209C5.23447 18.6103 5.13392 18.8906 5.19486 19.2258C5.26189 19.5945 5.53306 20.0332 5.95658 20.4598C5.95962 20.4628 6.0815 20.5816 6.29173 20.7827C13.4275 27.7083 17.7358 31.8246 18.4244 32.3791L18.4609 32.4127C20.1428 34.0945 26.392 37.0805 31.6417 31.8307C36.4771 26.9953 34.6581 21.3495 33.6496 19.1435L33.6283 19.0978C32.5802 16.837 30.1975 11.3527 30.621 9.165L30.6911 8.70797C31.1603 6.84328 31.1877 6.45328 30.3925 6.06937C30.1579 6.02672 28.476 5.82258 27.8331 8.22047C27.6716 8.98523 27.827 10.3837 27.9642 11.6177C28.0434 12.3155 28.1165 12.9766 28.1348 13.5281C28.1652 14.3965 27.7539 14.7286 27.5041 14.8505C26.9952 15.0973 26.3889 14.887 26.0111 14.5702L25.9715 14.5336C25.7856 14.3325 21.3646 9.9968 18.4396 7.12664L16.2398 4.9664C15.4902 4.21383 14.5244 4.0889 13.8754 4.73789C13.5585 5.05476 13.4153 5.42648 13.4488 5.83781C13.4854 6.26742 13.717 6.71531 14.1039 7.10226L21.4804 14.6677C21.648 14.84 21.7413 15.0713 21.7402 15.3118C21.739 15.5522 21.6436 15.7826 21.4743 15.9534C21.1361 16.2916 20.5389 16.2977 20.1916 15.9626L10.0485 6.07547C9.299 5.32594 8.33009 5.20101 7.68415 5.85C7.36728 6.16687 7.22408 6.53859 7.25759 6.94992C7.2972 7.37953 7.52876 7.83047 7.91267 8.21133L17.8546 18.4062C18.205 18.7596 18.202 19.3385 17.8485 19.6919C17.5103 20.0302 16.9131 20.0362 16.5658 19.7011L8.28744 11.6299C7.5379 10.8743 6.569 10.7524 5.92306 11.4014C5.13392 12.1905 5.55439 13.1686 6.15158 13.7688L14.2471 22.1294C14.4143 22.3011 14.507 22.5316 14.5053 22.7712C14.5036 23.0107 14.4076 23.2399 14.238 23.4091C13.8967 23.7504 13.3056 23.7534 12.9583 23.4213L7.89134 18.5524C7.46478 18.1228 6.97423 17.8912 6.50501 17.8912Z" fill="#EDA600"/>
<path d="M25.8253 14.1802C24.1526 17.5957 24.3689 22.3762 26.8795 26.2123C27.1629 26.7302 27.6474 26.4773 27.4006 25.9441C24.3689 19.4573 27.5468 14.7834 27.5468 14.7834L25.8253 14.1802Z" fill="#EDA600"/>
<path d="M19.2471 1.37109C20.1672 1.13039 21.1483 1.15172 22.102 1.37414C23.0496 1.60266 23.9971 2.08406 24.701 2.87016C25.3896 3.65016 25.8131 4.59773 25.9563 5.59102C26.0904 6.57516 25.9654 7.58977 25.4993 8.4307C25.4444 7.48617 25.2799 6.61781 25.0026 5.81648C24.8594 5.41734 24.6918 5.03648 24.4877 4.67695C24.2866 4.32047 24.0489 3.96703 23.7961 3.67758C23.2811 3.08344 22.5834 2.62031 21.8004 2.26078C21.0143 1.88906 20.1581 1.61484 19.2471 1.37109Z" fill="#B0BEC5"/>
<path d="M19.5 4.25953C20.0088 3.93656 20.6456 3.86953 21.2459 3.97617C21.8522 4.08281 22.4311 4.38445 22.8881 4.80188C23.3421 5.22539 23.6651 5.75859 23.8662 6.31312C23.9637 6.59039 24.0124 6.88289 24.0581 7.16625C24.0734 7.45875 24.0734 7.75125 24.0277 8.04375C23.8174 7.82133 23.6529 7.59891 23.4975 7.38258C23.3177 7.17844 23.1776 6.96211 23.0161 6.76406C22.6992 6.37102 22.3915 6.01453 22.0594 5.69766C21.7181 5.38992 21.3586 5.11875 20.9412 4.88414C20.5268 4.64344 20.0606 4.44234 19.5 4.25953Z" fill="#90A4AE"/>
<path d="M2.08102 23.5645C2.51063 24.4055 2.95852 25.1855 3.47953 25.8741C3.9975 26.5627 4.59164 27.1477 5.28328 27.5285C5.61844 27.7144 6.01758 27.8759 6.40758 27.9977C6.80063 28.1227 7.20891 28.208 7.62938 28.2659C8.47032 28.3695 9.35391 28.3512 10.2893 28.208C9.56414 28.8387 8.59524 29.1738 7.60805 29.247C6.60868 29.314 5.59407 29.0977 4.6861 28.5858C3.77203 28.0648 3.10172 27.236 2.68125 26.3555C2.26078 25.4688 2.03532 24.5152 2.08102 23.5645Z" fill="#B0BEC5"/>
<path d="M4.96028 23.208C5.25583 23.7199 5.54833 24.1312 5.86825 24.4908C6.18513 24.8503 6.52638 25.1459 6.8981 25.414C7.27591 25.673 7.69028 25.9015 8.14122 26.13C8.36669 26.2458 8.60739 26.3372 8.84505 26.4712C9.09185 26.5779 9.34169 26.6906 9.60372 26.8521C9.32646 26.9557 9.0431 27.0166 8.75364 27.0623C8.46724 27.0745 8.17169 27.0898 7.87919 27.0502C7.29419 26.9709 6.70919 26.7668 6.19732 26.4103C5.69458 26.0477 5.27716 25.545 5.04864 24.9752C4.81708 24.4085 4.75005 23.7748 4.96028 23.208Z" fill="#90A4AE"/>
<defs>
<radialGradient id="paint0_radial_25_2312" cx="0" cy="0" r="1" gradientUnits="userSpaceOnUse" gradientTransform="translate(13.4205 11.5783) rotate(-45) scale(27.729)">
<stop offset="0.353" stop-color="#FFCA28"/>
<stop offset="0.872" stop-color="#FFB300"/>
</radialGradient>
</defs>
</svg>
