<svg width="275" height="226" viewBox="0 0 275 226" fill="none" xmlns="http://www.w3.org/2000/svg">
<g clip-path="url(#clip0_40_751)">
<path d="M37.0776 52.2438C29.7311 52.2468 26.5752 62.9064 19.3859 64.4212C16.1749 65.0977 12.8988 63.7509 9.61812 63.6926C6.33747 63.6344 2.41333 66.0215 3.10656 69.2353L65.651 68.2904C59.1862 67.6177 53.1393 64.7712 48.4952 60.2146C45.1054 56.8363 41.8582 52.2418 37.0776 52.2438Z" fill="#F0F0F0"/>
<path d="M180.532 164.082C171.393 164.082 162.55 160.833 155.576 154.914C148.602 148.995 143.949 140.79 142.444 131.757L142.431 131.682L142.48 131.624C144.95 128.66 146.947 125.329 148.399 121.752C146.671 123.972 144.583 125.885 142.223 127.412L141.981 127.574L141.967 127.283C141.936 126.642 141.92 126.005 141.92 125.39C141.899 118.811 143.562 112.336 146.75 106.584C149.938 100.832 154.545 95.9955 160.13 92.5366C150.356 82.3725 144.907 68.799 144.935 54.6836C144.935 24.531 169.42 8.84435e-06 199.515 8.84435e-06C210.99 -0.0162498 222.177 3.59761 231.482 10.3265C240.786 17.0554 247.734 26.5559 251.334 37.4738L251.383 37.6208L251.24 37.6789C247.524 39.1866 244.104 39.9109 240.833 39.8756C244.561 40.9335 248.431 41.4023 252.303 41.2653L252.436 41.2608L252.468 41.3904C253.55 45.7383 254.097 50.2026 254.096 54.6836C254.096 54.8453 254.095 55.0069 254.094 55.1683C254.083 58.6526 254.805 62.0999 256.214 65.2856C257.622 68.4714 259.684 71.324 262.266 73.6575C266.391 77.4182 269.654 82.0296 271.83 87.1747C274.007 92.3197 275.045 97.8761 274.874 103.462C274.703 109.047 273.326 114.529 270.838 119.531C268.351 124.532 264.812 128.934 260.464 132.434L260.385 132.498L260.293 132.456C254.584 129.861 250.609 126.963 247.901 123.406C249.732 127.885 252.401 131.972 255.765 135.445L255.912 135.597L255.73 135.703C249.96 139.071 243.417 140.884 236.739 140.963C230.062 141.043 223.477 139.387 217.629 136.157C215.28 144.2 210.398 151.265 203.712 156.298C197.026 161.331 188.894 164.062 180.532 164.082Z" fill="#212D5D"/>
<path d="M166.776 225.715C166.607 225.714 166.444 225.653 166.317 225.542C166.19 225.431 166.106 225.278 166.083 225.111C166.053 224.901 163.133 203.802 165.755 175.761C168.177 149.864 175.953 112.563 199.247 81.9286C199.302 81.855 199.372 81.7933 199.452 81.7467C199.531 81.7002 199.619 81.6699 199.711 81.6575C199.802 81.6451 199.895 81.6509 199.984 81.6745C200.073 81.6981 200.157 81.739 200.23 81.795C200.303 81.851 200.365 81.9209 200.411 82.0008C200.458 82.0806 200.488 82.1688 200.5 82.2604C200.512 82.3519 200.507 82.445 200.483 82.5343C200.459 82.6236 200.418 82.7073 200.363 82.7808C177.27 113.151 169.557 150.178 167.152 175.892C164.546 203.77 167.442 224.704 167.472 224.913C167.486 225.012 167.478 225.114 167.45 225.211C167.421 225.307 167.372 225.396 167.306 225.473C167.241 225.549 167.159 225.61 167.068 225.651C166.976 225.693 166.877 225.715 166.776 225.715Z" fill="#3F3D56"/>
<path d="M178.421 122.436C178.273 122.436 178.128 122.389 178.008 122.302C177.888 122.215 177.799 122.092 177.753 121.95C177.707 121.809 177.707 121.657 177.753 121.516C177.799 121.374 177.888 121.251 178.008 121.164C178.092 121.103 186.614 114.95 199.354 110.275C211.13 105.955 229.039 102.038 247.475 107.918C247.563 107.946 247.644 107.991 247.715 108.05C247.785 108.11 247.844 108.182 247.886 108.264C247.928 108.347 247.954 108.436 247.962 108.528C247.97 108.62 247.959 108.713 247.931 108.801C247.904 108.889 247.859 108.971 247.799 109.041C247.74 109.112 247.667 109.17 247.585 109.212C247.503 109.255 247.414 109.28 247.322 109.288C247.23 109.296 247.137 109.285 247.05 109.257C228.991 103.498 211.407 107.35 199.836 111.596C187.278 116.203 178.916 122.241 178.833 122.301C178.713 122.389 178.569 122.436 178.421 122.436Z" fill="#3F3D56"/>
<path d="M36.9094 206.556L39.2799 207.3L55.1864 156.364C54.536 156.198 53.8468 156.288 53.2605 156.616C52.6742 156.943 52.2353 157.483 52.034 158.125L36.9094 206.556Z" fill="#3F3D56"/>
<path d="M89.1877 140.114H78.7014V109.227H89.1877C91.1939 109.229 93.1173 110.029 94.5359 111.45C95.9545 112.872 96.7524 114.799 96.7547 116.81V132.531C96.7524 134.542 95.9545 136.469 94.5359 137.89C93.1173 139.312 91.1939 140.112 89.1877 140.114Z" fill="#2F2E41"/>
<path d="M87.7282 123.567C87.378 123.567 87.0422 123.427 86.7946 123.179C86.5469 122.931 86.4076 122.594 86.4072 122.244V110.771H89.0492V122.244C89.0488 122.594 88.9095 122.931 88.6618 123.179C88.4142 123.427 88.0784 123.567 87.7282 123.567Z" fill="#3F3D56"/>
<path d="M90.9041 137.687H83.2314C82.7892 137.687 82.3653 137.51 82.0527 137.197C81.7401 136.884 81.5642 136.459 81.5637 136.016V131.416C81.5642 130.973 81.7401 130.548 82.0527 130.235C82.3653 129.921 82.7892 129.745 83.2314 129.745H90.9041C91.3463 129.745 91.7702 129.921 92.0828 130.235C92.3955 130.548 92.5713 130.973 92.5718 131.416V136.016C92.5713 136.459 92.3955 136.884 92.0828 137.197C91.7702 137.51 91.3463 137.687 90.9041 137.687Z" fill="#3F3D56"/>
<path d="M68.5322 106.013C68.3519 106.013 68.1771 105.951 68.0376 105.836C67.9511 105.766 67.8802 105.678 67.8292 105.579C67.7782 105.479 67.7482 105.37 67.7412 105.259C67.4938 101.301 68.1799 97.3397 69.7441 93.6966C70.8041 91.2374 72.0234 89.6528 73.5815 88.7097C75.6601 87.4516 78.5122 87.3511 81.4064 88.434C83.0605 89.0528 84.2534 89.8617 85.0532 90.9067C86.1205 92.3011 86.4552 94.0901 86.658 95.8155C86.9639 98.4262 87.0357 101.059 86.8727 103.683C86.8653 103.818 86.8221 103.949 86.7476 104.063C86.6731 104.176 86.5698 104.267 86.4484 104.328C86.3171 104.392 86.1714 104.421 86.0255 104.411C85.8797 104.402 85.7389 104.354 85.6172 104.273C85.5682 104.241 85.5176 104.211 85.4655 104.184C85.2019 104.051 84.9104 103.984 84.6154 103.988C84.3205 103.992 84.0308 104.066 83.7706 104.205C83.5796 104.319 83.399 104.449 83.2308 104.594L82.1902 105.438C82.0618 105.54 81.9052 105.6 81.7416 105.611C81.5779 105.621 81.415 105.581 81.2748 105.496C80.5201 105.066 79.6767 104.817 78.8101 104.767C77.6596 104.724 76.5078 104.807 75.3754 105.016L68.6498 106.004C68.6108 106.01 68.5715 106.013 68.5322 106.013Z" fill="#2F2E41"/>
<path d="M67.6341 218.423H64.0424L62.3337 204.541H67.6348L67.6341 218.423Z" fill="#FFB6B6"/>
<path d="M69.5665 225.257H67.0179L66.5629 222.846L65.3978 225.257H58.6382C58.3142 225.257 57.9987 225.154 57.7377 224.961C57.4767 224.769 57.2839 224.498 57.1875 224.188C57.0911 223.878 57.0961 223.545 57.2017 223.238C57.3074 222.931 57.5082 222.666 57.7748 222.482L63.1728 218.746V216.308L68.8506 216.648L69.5665 225.257Z" fill="#2F2E41"/>
<path d="M108.969 215.344L105.658 216.739L98.7131 204.605L103.6 202.547L108.969 215.344Z" fill="#FFB6B6"/>
<path d="M113.394 220.894L111.044 221.884L109.692 219.837L109.551 222.513L103.32 225.138C103.021 225.264 102.69 225.291 102.375 225.215C102.06 225.139 101.778 224.964 101.569 224.716C101.36 224.468 101.236 224.159 101.214 223.835C101.193 223.511 101.276 223.189 101.45 222.915L104.981 217.375L104.038 215.127L109.403 213.235L113.394 220.894Z" fill="#2F2E41"/>
<path d="M65.9557 123.874L64.9265 137.692L58.1002 158.327L55.3586 156.731L59.078 135.744L60.3411 123.637L65.9557 123.874Z" fill="#FFB6B6"/>
<path d="M56.508 161.337C58.0947 161.337 59.381 160.048 59.381 158.458C59.381 156.868 58.0947 155.579 56.508 155.579C54.9213 155.579 53.635 156.868 53.635 158.458C53.635 160.048 54.9213 161.337 56.508 161.337Z" fill="#FFB6B6"/>
<path d="M83.472 139.788V143.6C83.472 143.6 89.3594 153.997 86.962 158.458L95.8011 182.687C95.8011 182.687 107.788 194.699 106.76 203.279L107.445 206.024L99.5683 209.456L97.856 207.054L84.4994 184.06L73.1977 163.125L71.1428 187.835C71.1428 187.835 72.5127 207.054 68.7455 209.113L68.403 212.202H60.4087V209.266C60.4087 209.266 57.4438 198.817 59.1562 190.924L58.4712 157.634C58.4712 157.634 61.5535 143.563 65.3207 141.161L66.6906 137.729L83.472 139.788Z" fill="#2F2E41"/>
<path d="M89.7624 113.368L82.2972 109.865L80.1424 106.102L72.8966 106.514L70.7041 110.101L64.2547 111.41L65.2025 134.769C64.7802 135.502 64.6298 136.36 64.7776 137.193C65.0038 138.657 66.153 137.505 65.0038 138.657C63.8546 139.808 62.9884 139.23 63.5652 140.239C64.1419 141.248 62.7234 142.821 62.7234 142.821C62.7234 142.821 81.0698 152.185 86.2526 140.239C86.2526 140.239 87.2745 136.744 85.5483 129.423C83.822 122.102 89.7624 113.368 89.7624 113.368Z" fill="#E4E4E4"/>
<path d="M66.3744 112.898L64.2548 111.41C64.2548 111.41 61.3231 112.616 61.2242 115.056C61.1253 117.496 59.4402 124.798 59.4402 124.798L66.1327 128.403L66.3744 112.898Z" fill="#E4E4E4"/>
<path d="M91.5254 125.025L90.4965 138.843L79.0732 156.024L76.332 154.427L84.648 136.896L85.9111 124.788L91.5254 125.025Z" fill="#FFB6B6"/>
<path d="M86.2705 114.149L89.7623 113.368C89.7623 113.368 91.8664 114.041 92.1537 117.208C92.441 120.375 92.6819 125.887 92.6819 125.887L85.354 131.287L83.5347 123.542L86.2705 114.149Z" fill="#E4E4E4"/>
<path d="M77.1938 159.034C78.7805 159.034 80.0668 157.745 80.0668 156.155C80.0668 154.565 78.7805 153.276 77.1938 153.276C75.6071 153.276 74.3208 154.565 74.3208 156.155C74.3208 157.745 75.6071 159.034 77.1938 159.034Z" fill="#FFB6B6"/>
<path d="M75.8646 104.869C79.5616 104.869 82.5587 101.866 82.5587 98.1609C82.5587 94.4561 79.5616 91.4527 75.8646 91.4527C72.1675 91.4527 69.1704 94.4561 69.1704 98.1609C69.1704 101.866 72.1675 104.869 75.8646 104.869Z" fill="#FFB7B7"/>
<path d="M70.4121 97.1496H70.4117C69.559 97.1492 68.7052 97.148 67.8503 97.1462C67.7484 97.1457 67.6476 97.1249 67.5539 97.0848C67.4602 97.0448 67.3754 96.9863 67.3046 96.913C67.2348 96.8412 67.1803 96.7561 67.1443 96.6626C67.1083 96.5692 67.0916 96.4694 67.0952 96.3693C67.1583 94.9477 67.5636 93.5626 68.2767 92.3321C68.9897 91.1016 69.9893 90.0623 71.1901 89.3029C72.4526 88.5313 73.8933 88.1011 75.3714 88.0543C76.8495 88.0074 78.3144 88.3456 79.6231 89.0357C80.9318 89.7258 82.0395 90.7443 82.8379 91.9916C83.6364 93.2389 84.0984 94.6725 84.1787 96.1522C84.1843 96.2522 84.1701 96.3522 84.1367 96.4466C84.1034 96.541 84.0516 96.6278 83.9845 96.7019C83.9174 96.7761 83.8363 96.8361 83.7458 96.8786C83.6553 96.921 83.5573 96.945 83.4574 96.9491C80.4949 97.0747 77.2087 97.1357 72.8019 97.1471H72.7998C72.6498 97.1475 72.5031 97.103 72.3786 97.0192C72.2541 96.9354 72.1575 96.8162 72.1011 96.677L72.0302 96.5031C71.9929 96.4115 71.9276 96.3342 71.8436 96.2822C71.7596 96.2302 71.6614 96.2062 71.563 96.2137C71.4646 96.2212 71.3711 96.2598 71.2959 96.3239C71.2208 96.3881 71.1678 96.4744 71.1448 96.5706C71.1056 96.7357 71.0119 96.8827 70.8789 96.9878C70.7459 97.0929 70.5814 97.1499 70.4121 97.1496Z" fill="#2F2E41"/>
<path d="M85.3961 130.98C83.597 129.283 82.8237 126.822 82.8113 124.391C82.7972 121.614 83.8 118.977 85.097 116.563C85.8814 115.103 86.7751 113.706 87.6694 112.312C87.9702 111.844 87.2245 111.41 86.9252 111.877C83.8994 116.592 80.5674 122.178 82.5187 127.974C82.9664 129.348 83.7454 130.59 84.7867 131.591C85.1904 131.971 85.8011 131.362 85.3961 130.98Z" fill="#3F3D56"/>
<path d="M36.9554 182.519C35.473 182.051 33.8887 182.011 32.3847 182.404C32.3812 182.406 32.3786 182.405 32.3752 182.407C31.2096 182.711 30.1229 183.262 29.1894 184.025C29.1351 184.069 29.0836 184.113 29.032 184.158C27.8491 185.175 26.9758 186.505 26.5121 187.995L20.1161 208.477C19.6403 209.993 19.6078 211.613 20.0224 213.147C20.0475 213.234 20.0726 213.32 20.0977 213.406C20.4082 214.422 20.9079 215.37 21.5703 216.2C21.5745 216.205 21.5778 216.21 21.5802 216.215C22.6143 217.502 24.007 218.451 25.5811 218.942L37.6439 222.725L49.0182 186.302L36.9554 182.519Z" fill="#212D5D"/>
<path d="M55.9767 156.612L40.441 206.36C40.3922 206.516 40.3745 206.68 40.3889 206.843C40.4034 207.006 40.4497 207.164 40.5253 207.309C40.6009 207.454 40.7043 207.583 40.8295 207.687C40.9547 207.792 41.0993 207.871 41.255 207.92C41.4108 207.969 41.5746 207.987 41.7371 207.972C41.8996 207.957 42.0577 207.911 42.2022 207.835C42.3467 207.759 42.4749 207.655 42.5795 207.53C42.684 207.404 42.7629 207.259 42.8115 207.103L57.5652 159.859C57.7648 159.217 57.7114 158.523 57.416 157.919C57.1206 157.315 56.6055 156.847 55.9767 156.612Z" fill="#3F3D56"/>
<path d="M36.6009 225.454C37.8293 225.454 38.8251 224.456 38.8251 223.225C38.8251 221.994 37.8293 220.996 36.6009 220.996C35.3725 220.996 34.3767 221.994 34.3767 223.225C34.3767 224.456 35.3725 225.454 36.6009 225.454Z" fill="#3F3D56"/>
<path d="M22.1148 220.911C23.3432 220.911 24.339 219.913 24.339 218.682C24.339 217.451 23.3432 216.453 22.1148 216.453C20.8864 216.453 19.8906 217.451 19.8906 218.682C19.8906 219.913 20.8864 220.911 22.1148 220.911Z" fill="#3F3D56"/>
<path d="M32.3848 182.404C30.0811 189.642 24.0466 208.567 21.5802 216.215C21.5779 216.21 21.5746 216.205 21.5704 216.2C20.9079 215.37 20.4083 214.422 20.0978 213.406C20.0727 213.32 20.0476 213.234 20.0225 213.147C22.6668 204.837 27.0958 190.821 29.0321 184.158C29.0837 184.113 29.1352 184.069 29.1894 184.025C30.123 183.262 31.2096 182.711 32.3753 182.407C32.3787 182.405 32.3813 182.406 32.3848 182.404Z" fill="#3F3D56"/>
<path d="M214.136 225.599H0.66522C0.561274 225.599 0.46169 225.557 0.388295 225.483C0.314899 225.41 0.273682 225.31 0.273682 225.206C0.273682 225.101 0.314899 225.002 0.388295 224.928C0.46169 224.854 0.561274 224.812 0.66522 224.812H214.136C214.24 224.812 214.339 224.854 214.413 224.928C214.486 225.002 214.527 225.101 214.527 225.206C214.527 225.31 214.486 225.41 214.413 225.483C214.339 225.557 214.24 225.599 214.136 225.599Z" fill="#CACACA"/>
<path d="M103.9 19.2353C100.51 15.8569 97.2627 11.2625 92.4821 11.2644C85.1356 11.2674 81.9797 21.927 74.7904 23.4418C71.5795 24.1184 68.3033 22.7715 65.0227 22.7133C61.742 22.655 57.8179 25.0421 58.5111 28.2559L121.056 27.311C114.591 26.6384 108.544 23.7919 103.9 19.2353Z" fill="#F0F0F0"/>
<path d="M243.196 5.13908C235.849 5.14209 232.693 15.8017 225.504 17.3165C222.293 17.993 219.017 16.6462 215.736 16.5879C212.456 16.5297 208.531 18.9167 209.225 22.1306L271.769 21.1857C265.304 20.513 259.257 17.6665 254.613 13.1099C251.224 9.73158 247.976 5.13711 243.196 5.13908Z" fill="#F0F0F0"/>
</g>
<defs>
<clipPath id="clip0_40_751">
<rect width="274.62" height="225.715" fill="white" transform="translate(0.272461)"/>
</clipPath>
</defs>
</svg>
