<svg width="20" height="15" viewBox="0 0 20 15" fill="none" xmlns="http://www.w3.org/2000/svg">
<path d="M15.8333 0H4.16667C1.86917 0 0 1.86917 0 4.16667V10.8333C0 13.1308 1.86917 15 4.16667 15H15.8333C18.1308 15 20 13.1308 20 10.8333V4.16667C20 1.86917 18.1308 0 15.8333 0ZM9.36083 7.345L7.8825 8.54917L8.49417 10.4117C8.5775 10.6633 8.49333 10.9408 8.2825 11.1033C8.07167 11.265 7.78167 11.2767 7.56 11.1317L5.83917 10.0108L4.14667 11.1433C4.04167 11.2142 3.92 11.2492 3.79917 11.2492C3.66667 11.2492 3.535 11.2075 3.42417 11.1242C3.21167 10.965 3.12333 10.6892 3.2025 10.4367L3.79083 8.55167L2.305 7.3425C2.105 7.1725 2.0325 6.89667 2.1225 6.65083C2.2125 6.405 2.44667 6.24167 2.70917 6.24167H4.585L5.24917 4.37917C5.34 4.135 5.57417 3.9725 5.835 3.9725C6.09583 3.9725 6.33 4.135 6.42083 4.37917L7.085 6.24167H8.96083C9.22333 6.24167 9.45833 6.40583 9.54833 6.6525C9.63833 6.89917 9.56417 7.17583 9.36333 7.345H9.36083ZM14.1667 11.6667H12.5C12.04 11.6667 11.6667 11.2942 11.6667 10.8333C11.6667 10.3725 12.04 10 12.5 10H14.1667C14.6267 10 15 10.3725 15 10.8333C15 11.2942 14.6267 11.6667 14.1667 11.6667ZM16.6667 8.33333H12.5C12.04 8.33333 11.6667 7.96083 11.6667 7.5C11.6667 7.03917 12.04 6.66667 12.5 6.66667H16.6667C17.1267 6.66667 17.5 7.03917 17.5 7.5C17.5 7.96083 17.1267 8.33333 16.6667 8.33333ZM16.6667 5H12.5C12.04 5 11.6667 4.6275 11.6667 4.16667C11.6667 3.70583 12.04 3.33333 12.5 3.33333H16.6667C17.1267 3.33333 17.5 3.70583 17.5 4.16667C17.5 4.6275 17.1267 5 16.6667 5Z" fill="#03003E"/>
</svg>
