<svg width="36" height="23" viewBox="0 0 36 23" fill="none" xmlns="http://www.w3.org/2000/svg">
<path d="M13.7511 11.1245C13.7511 7.57087 15.4198 4.41887 17.9845 2.37934C16.0996 0.896106 13.7203 0 11.1246 0C4.97503 0 0 4.97503 0 11.1245C0 17.2738 4.97503 22.2489 11.1245 22.2489C13.7202 22.2489 16.0995 21.3528 17.9845 19.8695C15.4198 17.8609 13.7511 14.6781 13.7511 11.1245Z" fill="#798494"/>
<path d="M36.0001 11.1245C36.0001 17.2738 31.0251 22.2489 24.8756 22.2489C22.2799 22.2489 19.9006 21.3528 18.0156 19.8695C20.6113 17.8301 22.2491 14.6781 22.2491 11.1245C22.2491 7.57087 20.5804 4.41887 18.0156 2.37934C19.9005 0.896106 22.2799 0 24.8756 0C31.0251 0 36.0002 5.006 36.0002 11.1245H36.0001Z" fill="#3F3D56"/>
</svg>
