<svg width="44" height="44" viewBox="0 0 44 44" fill="none" xmlns="http://www.w3.org/2000/svg">
<rect x="0.5" y="0.5" width="43" height="43" rx="9.5" fill="#F5F5F5"/>
<rect x="0.5" y="0.5" width="43" height="43" rx="9.5" stroke="#E4E7EC"/>
<path fill-rule="evenodd" clip-rule="evenodd" d="M22.5 9.50977C17.3281 9.50977 13.1354 13.7024 13.1354 18.8743V19.7251C13.1354 20.5672 12.8862 21.3906 12.419 22.0912L11.0311 24.173C9.42032 26.5893 10.6501 29.8736 13.4517 30.6376C14.3647 30.8866 15.2854 31.0972 16.2115 31.2696L16.2138 31.2757C17.143 33.7551 19.6265 35.4889 22.5 35.4889C25.3734 35.4889 27.8569 33.7551 28.7861 31.2757L28.7884 31.2696C29.7144 31.0972 30.6353 30.8866 31.5483 30.6376C34.35 29.8736 35.5797 26.5893 33.9689 24.173L32.581 22.0912C32.1138 21.3906 31.8645 20.5672 31.8645 19.7251V18.8743C31.8645 13.7024 27.6719 9.50977 22.5 9.50977ZM26.5798 31.6066C23.8696 31.9304 21.1302 31.9303 18.42 31.6064C19.2791 32.8409 20.7733 33.6764 22.5 33.6764C24.2265 33.6764 25.7208 32.8409 26.5798 31.6066ZM14.9479 18.8743C14.9479 14.7034 18.3291 11.3223 22.5 11.3223C26.6709 11.3223 30.052 14.7034 30.052 18.8743V19.7251C30.052 20.9251 30.4073 22.0982 31.0728 23.0966L32.4607 25.1785C33.3854 26.5653 32.6796 28.4504 31.0714 28.889C25.4597 30.4195 19.5404 30.4195 13.9286 28.889C12.3205 28.4504 11.6147 26.5653 12.5392 25.1785L13.9271 23.0966C14.5927 22.0982 14.9479 20.9251 14.9479 19.7251V18.8743Z" fill="#03003E"/>
<circle cx="32.5" cy="16.5" r="3" fill="#1BC001" stroke="#F5F5F5"/>
</svg>
