<svg width="22" height="23" viewBox="0 0 22 23" fill="none" xmlns="http://www.w3.org/2000/svg">
<path fill-rule="evenodd" clip-rule="evenodd" d="M11 0C6.33146 0 2.54685 3.71187 2.54685 8.2907V9.04392C2.54685 9.78944 2.32185 10.5184 1.90019 11.1386L0.64737 12.9817C-0.80667 15.1209 0.303376 18.0286 2.83233 18.705C3.6565 18.9255 4.48762 19.1119 5.32357 19.2645L5.32564 19.2699C6.1644 21.465 8.40619 23 11 23C13.5937 23 15.8355 21.465 16.6743 19.2699L16.6763 19.2645C17.5123 19.1119 18.3435 18.9255 19.1677 18.705C21.6966 18.0286 22.8067 15.1209 21.3526 12.9817L20.0998 11.1386C19.6781 10.5184 19.4531 9.78944 19.4531 9.04392V8.2907C19.4531 3.71187 15.6685 0 11 0ZM14.6827 19.5628C12.2363 19.8495 9.76351 19.8494 7.3171 19.5627C8.09256 20.6556 9.44131 21.3953 11 21.3953C12.5585 21.3953 13.9073 20.6556 14.6827 19.5628ZM4.18295 8.2907C4.18295 4.5981 7.23505 1.60465 11 1.60465C14.7649 1.60465 17.817 4.5981 17.817 8.2907V9.04392C17.817 10.1063 18.1377 11.1448 18.7385 12.0288L19.9913 13.8719C20.8259 15.0997 20.1888 16.7686 18.7372 17.1569C13.6716 18.5119 8.32844 18.5119 3.26281 17.1569C1.81123 16.7686 1.17409 15.0997 2.00869 13.8719L3.2615 12.0288C3.86233 11.1448 4.18295 10.1063 4.18295 9.04392V8.2907Z" fill="#03003E"/>
</svg>
