<svg width="91" height="61" viewBox="0 0 91 61" fill="none" xmlns="http://www.w3.org/2000/svg">
<path fill-rule="evenodd" clip-rule="evenodd" d="M24.98 22.8994H14.3457C13.1533 22.8994 12.1867 23.8682 12.1867 25.0633C12.1867 26.2584 13.1533 27.2272 14.3457 27.2272H19.7676L11.0397 35.9748C10.1964 36.8197 10.1964 38.1898 11.0397 39.0349C11.8828 39.88 13.2498 39.88 14.093 39.0349L22.8209 30.2874V35.7214C22.8209 36.9165 23.7875 37.8853 24.98 37.8853C26.1724 37.8853 27.139 36.9165 27.139 35.7214V25.0633C27.139 23.8682 26.1724 22.8994 24.98 22.8994Z" fill="#CCCCCC"/>
<path fill-rule="evenodd" clip-rule="evenodd" d="M31.1947 37.7937H41.829C43.0214 37.7937 43.9881 36.8249 43.9881 35.6298C43.9881 34.4347 43.0214 33.4659 41.829 33.4659H36.4071L45.1351 24.7184C45.9783 23.8734 45.9783 22.5033 45.1351 21.6583C44.2919 20.8131 42.9249 20.8131 42.0818 21.6583L33.3538 30.4058V24.9717C33.3538 23.7766 32.3872 22.8079 31.1947 22.8079C30.0023 22.8079 29.0357 23.7766 29.0357 24.9717V35.6298C29.0357 36.8249 30.0023 37.7937 31.1947 37.7937Z" fill="#B6B6B6"/>
<path fill-rule="evenodd" clip-rule="evenodd" d="M53.4798 28.2489C54.6956 28.2489 55.1527 27.2007 55.1527 26.1612C55.1527 25.0694 54.6956 24.0211 53.4798 24.0211C52.264 24.0211 51.8069 25.0693 51.8069 26.1612C51.8069 27.2007 52.264 28.2489 53.4798 28.2489ZM53.4798 22.8682C55.3855 22.8682 56.5065 24.3094 56.5065 26.1612C56.5065 27.9606 55.3855 29.4019 53.4798 29.4019C51.574 29.4019 50.453 27.9606 50.453 26.1612C50.453 24.3094 51.574 22.8682 53.4798 22.8682ZM56.9721 24.858H58.1047V25.7018H58.1215C58.3397 25.1305 58.927 24.7349 59.5059 24.7349C59.5899 24.7349 59.6905 24.7526 59.766 24.779V25.939C59.6569 25.9127 59.4807 25.8951 59.3381 25.8951C58.4656 25.8951 58.1635 26.5542 58.1635 27.3541V29.4019H56.9721V24.858ZM63.41 27.1155C63.1883 27.2953 62.7262 27.3039 62.3198 27.3724C61.9133 27.4494 61.5437 27.5779 61.5437 28.0232C61.5437 28.4771 61.9224 28.5884 62.3475 28.5884C63.373 28.5884 63.41 27.8348 63.41 27.5694V27.1155ZM60.3795 26.2164C60.4535 25.0775 61.553 24.7349 62.6245 24.7349C63.5761 24.7349 64.7218 24.9318 64.7218 25.9937V28.2973C64.7218 28.6997 64.768 29.1021 64.8882 29.282H63.5578C63.5115 29.1449 63.4746 28.9994 63.4653 28.8539C63.0496 29.2563 62.44 29.4019 61.8578 29.4019C60.9525 29.4019 60.2317 28.9823 60.2317 28.0746C60.2317 27.0727 61.0449 26.8329 61.8578 26.7301C62.6616 26.6188 63.41 26.6445 63.41 26.1478C63.41 25.6255 63.0219 25.5484 62.5599 25.5484C62.0611 25.5484 61.7379 25.7368 61.6915 26.2164H60.3795ZM65.3538 24.858H66.5203V25.4908H66.5463C66.8573 24.9811 67.3932 24.7349 67.9115 24.7349C69.2163 24.7349 69.5446 25.482 69.5446 26.607V29.4019H68.3177V26.8356C68.3177 26.0885 68.1016 25.7193 67.5314 25.7193C66.866 25.7193 66.5808 26.0974 66.5808 27.0201V29.4019H65.3539L65.3538 24.858ZM73.4413 27.1256C73.4413 26.3707 73.1781 25.6966 72.3431 25.6966C71.6169 25.6966 71.2993 26.3258 71.2993 27.0177C71.2993 27.6828 71.5534 28.4107 72.3431 28.4107C73.0784 28.4107 73.4413 27.7906 73.4413 27.1256ZM74.6668 29.2106C74.6668 29.9745 74.3944 31.2686 72.2341 31.2686C71.3084 31.2686 70.2283 30.8372 70.1647 29.7768H71.4444C71.5624 30.253 71.9528 30.4149 72.4066 30.4149C73.1238 30.4149 73.4505 29.9296 73.4413 29.2645V28.6534H73.4232C73.142 29.1387 72.579 29.3725 72.0163 29.3725C70.6094 29.3725 70.0103 28.3119 70.0103 27.0357C70.0103 25.8314 70.7092 24.735 72.0254 24.735C72.6427 24.735 73.1146 24.9417 73.4232 25.481H73.4414V24.8608H74.6668V29.2106ZM78.4999 26.5931C78.3826 25.9765 78.1027 25.6512 77.4797 25.6512C76.6671 25.6512 76.4325 26.2506 76.4143 26.5931H78.4999ZM76.4143 27.3638C76.4505 28.1345 76.8477 28.4856 77.561 28.4856C78.0755 28.4856 78.4909 28.1858 78.572 27.9118H79.7006C79.3394 28.9566 78.572 29.4019 77.5158 29.4019C76.0443 29.4019 75.1324 28.4428 75.1324 27.0726C75.1324 25.7454 76.0985 24.7349 77.5159 24.7349C79.1047 24.7349 79.8721 26.0022 79.7818 27.3638L76.4143 27.3638ZM53.5117 35.7618H53.5298L54.9648 31.2686H56.9721V37.8023H55.637V33.1719H55.6188L54.0293 37.8023H52.9303L51.3409 33.2177H51.3226V37.8023H49.9874V31.2686H51.9948L53.5117 35.7618ZM60.2273 36.8861C61.0715 36.8861 61.324 36.1753 61.324 35.4731C61.324 34.7623 61.0715 34.0517 60.2273 34.0517C59.3917 34.0517 59.1393 34.7623 59.1393 35.4731C59.1393 36.1753 59.3917 36.8861 60.2273 36.8861ZM60.2273 33.1354C61.646 33.1354 62.5599 34.0603 62.5599 35.4731C62.5599 36.8774 61.646 37.8023 60.2273 37.8023C58.8174 37.8023 57.9034 36.8774 57.9034 35.4731C57.9034 34.0603 58.8174 33.1354 60.2273 33.1354ZM63.0256 33.2585H64.192V33.8913H64.2181C64.5291 33.3817 65.0649 33.1354 65.5832 33.1354C66.8881 33.1354 67.2164 33.8825 67.2164 35.0075V37.8023H65.9893V35.236C65.9893 34.489 65.7734 34.1199 65.2031 34.1199C64.5377 34.1199 64.2526 34.4978 64.2526 35.4206V37.8023H63.0256L63.0256 33.2585ZM71.0495 34.9936C70.9322 34.377 70.6523 34.0517 70.0293 34.0517C69.2169 34.0517 68.9822 34.6512 68.9641 34.9936H71.0495ZM68.9641 35.7643C69.0001 36.5348 69.3974 36.8861 70.1106 36.8861C70.6251 36.8861 71.0405 36.5863 71.1217 36.3123H72.2503C71.8891 37.3569 71.1217 37.8023 70.0655 37.8023C68.5939 37.8023 67.682 36.8431 67.682 35.473C67.682 34.146 68.6481 33.1354 70.0655 33.1354C71.6544 33.1354 72.4217 34.4028 72.3314 35.7643L68.9641 35.7643ZM75.1009 38.1868C74.829 38.9071 74.3993 39.2024 73.5399 39.2024C73.2856 39.2024 73.0312 39.185 72.7769 39.1589V38.1434C73.0137 38.1608 73.2593 38.1956 73.5048 38.1868C73.9345 38.1434 74.0748 37.7008 73.9345 37.345L72.3385 33.1354H73.6715L74.6975 36.208H74.715L75.7061 33.1354H76.995L75.1009 38.1868Z" fill="#CCCCCC"/>
</svg>
