<svg width="25" height="25" viewBox="0 0 25 25" fill="none" xmlns="http://www.w3.org/2000/svg">
<g clip-path="url(#clip0_25_2177)">
<path d="M15.8554 12.9102C15.9645 12.7078 15.8889 12.4553 15.6865 12.3461C15.4841 12.237 15.2316 12.3126 15.1224 12.515L15.8554 12.9102ZM13.1097 17.1253L13.464 17.344L13.4703 17.3336L13.4762 17.3229L13.1097 17.1253ZM12.3097 17.7875L12.4055 18.1926L12.4227 18.1885L12.4396 18.1829L12.3097 17.7875ZM12.2154 13.7271C12.2975 13.5123 12.1901 13.2717 11.9752 13.1896C11.7605 13.1075 11.5198 13.215 11.4377 13.4298L12.2154 13.7271ZM19.0924 11.2867L19.956 12.3207L20.5951 11.787L19.7314 10.7529L19.0924 11.2867ZM7.45991 15.3128L5.16866 14.9705L5.04559 15.794L7.33684 16.1364L7.45991 15.3128ZM4.82502 14.6544L4.57158 13.5825L3.76126 13.774L4.0147 14.846L4.82502 14.6544ZM4.57158 13.5825L3.90105 10.7463L3.09073 10.9379L3.76126 13.774L4.57158 13.5825ZM4.21042 10.2454L4.98523 10.0622L4.79365 9.25188L4.01884 9.43506L4.21042 10.2454ZM5.41805 10.2229L7.15011 12.6114L7.82418 12.1226L6.09213 9.73412L5.41805 10.2229ZM8.44858 13.0937L17.8463 10.8718L17.6547 10.0615L8.257 12.2833L8.44858 13.0937ZM15.1224 12.515L12.7433 16.9277L13.4762 17.3229L15.8554 12.9102L15.1224 12.515ZM12.2139 17.3823L11.408 17.5728L11.5996 18.3832L12.4055 18.1926L12.2139 17.3823ZM10.913 17.134L12.2154 13.7271L11.4377 13.4298L10.1352 16.8367L10.913 17.134ZM11.408 17.5728C11.1514 17.6335 10.9079 17.4435 10.8962 17.1894L10.0644 17.2277C10.0997 17.9936 10.8264 18.566 11.5996 18.3832L11.408 17.5728ZM12.7554 16.9065C12.5839 17.1844 12.5464 17.2348 12.5122 17.2631C12.4867 17.2842 12.454 17.3018 12.1797 17.3919L12.4396 18.1829C12.656 18.1119 12.8687 18.0489 13.0432 17.9045C13.209 17.7673 13.3262 17.5672 13.464 17.344L12.7554 16.9065ZM19.7322 12.9928L14.1556 14.3112L14.3472 15.1215L19.9238 13.8031L19.7322 12.9928ZM11.0116 15.0545L10.4491 15.1875L10.6407 15.9978L11.2031 15.8649L11.0116 15.0545ZM14.9719 10.8719L10.9985 7.45782L10.4558 8.08938L14.4292 11.5035L14.9719 10.8719ZM9.8972 7.18966L9.24388 7.34412L9.43546 8.15444L10.0888 7.99998L9.8972 7.18966ZM8.60179 9.39392L11.1495 12.2321L11.7691 11.676L9.22142 8.8377L8.60179 9.39392ZM9.24388 7.34412C8.32125 7.56225 7.96849 8.6884 8.60179 9.39392L9.22142 8.8377C9.01033 8.60254 9.12791 8.22715 9.43546 8.15444L9.24388 7.34412ZM10.9985 7.45782C10.6954 7.19741 10.2861 7.09772 9.8972 7.18966L10.0888 7.99998C10.2184 7.96935 10.3549 8.00256 10.4558 8.08938L10.9985 7.45782ZM7.15011 12.6114C7.44599 13.0194 7.9581 13.2096 8.44858 13.0937L8.257 12.2833C8.09351 12.322 7.9228 12.2586 7.82418 12.1226L7.15011 12.6114ZM4.98523 10.0622C5.14872 10.0235 5.31942 10.0869 5.41805 10.2229L6.09213 9.73412C5.79625 9.32611 5.28413 9.13592 4.79365 9.25188L4.98523 10.0622ZM5.16866 14.9705C5.00029 14.9453 4.8642 14.8201 4.82502 14.6544L4.0147 14.846C4.13222 15.3431 4.54048 15.7185 5.04559 15.794L5.16866 14.9705ZM7.33684 16.1364C8.43691 16.3008 9.55824 16.2538 10.6407 15.9978L10.4491 15.1875C9.46975 15.4191 8.45521 15.4616 7.45991 15.3128L7.33684 16.1364ZM10.1352 16.8367C10.099 16.9315 10.0571 17.0687 10.0644 17.2277L10.8962 17.1894C10.8964 17.1935 10.8957 17.1918 10.8978 17.1821C10.8999 17.1719 10.9043 17.1565 10.913 17.134L10.1352 16.8367ZM19.956 12.3207C20.1543 12.5583 20.0334 12.9216 19.7322 12.9928L19.9238 13.8031C20.8273 13.5895 21.1902 12.4996 20.5951 11.787L19.956 12.3207ZM3.90105 10.7463C3.84815 10.5226 3.98666 10.2983 4.21042 10.2454L4.01884 9.43506C3.34755 9.59377 2.93202 10.2666 3.09073 10.9379L3.90105 10.7463ZM19.7314 10.7529C19.226 10.1477 18.4221 9.88006 17.6547 10.0615L17.8463 10.8718C18.3067 10.7629 18.7891 10.9236 19.0924 11.2867L19.7314 10.7529Z" fill="#212D5D"/>
</g>
<defs>
<clipPath id="clip0_25_2177">
<rect width="19.9838" height="19.9838" fill="white" transform="translate(0.342621 4.74268) rotate(-13.3018)"/>
</clipPath>
</defs>
</svg>
