<svg width="379" height="207" viewBox="0 0 379 207" fill="none" xmlns="http://www.w3.org/2000/svg">
<g clip-path="url(#clip0_7_2387)">
<path d="M91.3358 207C141.779 207 182.672 205.342 182.672 203.296C182.672 201.25 141.779 199.591 91.3358 199.591C40.8924 199.591 -6.10352e-05 201.25 -6.10352e-05 203.296C-6.10352e-05 205.342 40.8924 207 91.3358 207Z" fill="#E6E6E6"/>
<path d="M187.928 0C186.979 0.000881523 186.07 0.329457 185.399 0.913625C184.728 1.49779 184.351 2.28984 184.35 3.11598V118.634C184.351 119.46 184.728 120.252 185.399 120.836C186.07 121.42 186.979 121.749 187.928 121.75H375.422C376.371 121.749 377.28 121.42 377.951 120.836C378.622 120.252 378.999 119.46 379 118.634V3.11598C378.999 2.28984 378.622 1.49779 377.951 0.913625C377.28 0.329457 376.371 0.000880542 375.422 0H187.928Z" fill="#E6E6E6"/>
<path d="M188.375 118.244H374.975V3.50562H188.375V118.244Z" fill="white"/>
<path d="M135.259 146.84C134.114 146.841 133.003 147.183 132.112 147.811C131.222 148.439 130.606 149.313 130.367 150.289H137.343V165.537H130.367C130.625 166.589 131.32 167.522 132.321 168.154C133.321 168.787 134.554 169.074 135.783 168.961C137.013 168.849 138.15 168.344 138.977 167.544C139.804 166.744 140.262 165.705 140.261 164.629V151.197C140.261 150.625 140.132 150.058 139.881 149.53C139.629 149.001 139.261 148.521 138.796 148.116C138.332 147.712 137.78 147.391 137.173 147.172C136.567 146.953 135.916 146.84 135.259 146.84Z" fill="#3F3D56"/>
<path d="M79.0142 120.157C76.6297 120.16 74.3436 120.986 72.6575 122.454C70.9714 123.922 70.023 125.913 70.0203 127.99V188.199C70.023 190.275 70.9714 192.266 72.6575 193.735C74.3436 195.203 76.6297 196.029 79.0142 196.031H122.722C125.106 196.029 127.392 195.203 129.079 193.735C130.765 192.266 131.713 190.275 131.716 188.199V127.99C131.713 125.913 130.765 123.922 129.079 122.454C127.392 120.986 125.106 120.16 122.722 120.157H79.0142Z" fill="#3F3D56"/>
<path d="M74.3974 203.11C76.9299 203.11 78.9829 201.323 78.9829 199.117C78.9829 196.912 76.9299 195.124 74.3974 195.124C71.8649 195.124 69.8119 196.912 69.8119 199.117C69.8119 201.323 71.8649 203.11 74.3974 203.11Z" fill="#3F3D56"/>
<path d="M125.671 203.11C128.204 203.11 130.257 201.323 130.257 199.117C130.257 196.912 128.204 195.124 125.671 195.124C123.139 195.124 121.086 196.912 121.086 199.117C121.086 201.323 123.139 203.11 125.671 203.11Z" fill="#3F3D56"/>
<path d="M80.2334 119.613H77.7322V196.213H80.2334V119.613Z" fill="#4D4D4D"/>
<path d="M87.3201 119.613H84.8189V196.213H87.3201V119.613Z" fill="#4D4D4D"/>
<path d="M94.4067 119.613H91.9055V196.213H94.4067V119.613Z" fill="#4D4D4D"/>
<path d="M101.493 119.613H98.9922V196.213H101.493V119.613Z" fill="#4D4D4D"/>
<path d="M108.58 119.613H106.079V196.213H108.58V119.613Z" fill="#4D4D4D"/>
<path d="M115.667 119.613H113.166V196.213H115.667V119.613Z" fill="#4D4D4D"/>
<path d="M122.753 119.613H120.252V196.213H122.753V119.613Z" fill="#4D4D4D"/>
<path d="M122.081 113.804C123.716 111.383 124.577 108.626 124.577 105.818H80.2855C80.2851 108.626 81.1468 111.383 82.7813 113.804H73.772C73.772 118.015 77.8547 121.428 82.8909 121.428H94.0506C95.9254 121.911 97.8706 122.156 99.8259 122.154H105.037C106.992 122.156 108.937 121.911 110.812 121.428H121.972C127.008 121.428 131.091 118.015 131.091 113.804H122.081Z" fill="#2F2E41"/>
<path d="M89.3643 168.804C89.4466 169.578 89.2576 170.355 88.8222 171.034C88.3869 171.712 87.7256 172.26 86.9256 172.605L86.9032 172.616C82.7341 174.687 79.3226 176.312 75.2739 176.013C74.8659 175.981 74.4718 175.868 74.1222 175.682C73.7726 175.497 73.477 175.243 73.2585 174.941C73.0399 174.64 72.9043 174.298 72.8621 173.943C72.8199 173.588 72.8724 173.23 73.0154 172.896L78.7744 163.358C82.1196 159.964 84.4772 159.961 88.5706 162.814L89.3643 168.804Z" fill="#2F2E41"/>
<path d="M113.206 168.804C113.123 169.578 113.312 170.355 113.748 171.034C114.183 171.712 114.844 172.26 115.644 172.605L115.667 172.616C119.836 174.687 123.247 176.312 127.296 176.013C127.704 175.981 128.098 175.868 128.448 175.682C128.797 175.497 129.093 175.243 129.311 174.941C129.53 174.64 129.666 174.298 129.708 173.943C129.75 173.588 129.697 173.23 129.554 172.896L123.795 163.358C120.45 159.964 118.093 159.961 113.999 162.814L113.206 168.804Z" fill="#2F2E41"/>
<path d="M96.4686 56.445H80.4438C79.7178 56.446 79.0108 56.2433 78.4275 55.867C77.8442 55.4906 77.4157 54.9606 77.2054 54.3555C76.712 52.9233 76.0749 51.5337 76.0648 50.2734C76.0255 45.382 76.3047 42.2686 78.7744 40.29C87.0035 34.8559 92.9661 35.8555 98.5754 41.5606C100.544 44.7479 100.039 49.5048 98.9739 54.6167C98.8685 55.1288 98.5599 55.5924 98.102 55.9265C97.6441 56.2607 97.066 56.4442 96.4686 56.445Z" fill="#2F2E41"/>
<path d="M88.1538 62.6165C94.1397 62.6165 98.9922 58.3906 98.9922 53.1776C98.9922 47.9647 94.1397 43.7388 88.1538 43.7388C82.1679 43.7388 77.3154 47.9647 77.3154 53.1776C77.3154 58.3906 82.1679 62.6165 88.1538 62.6165Z" fill="#A0616A"/>
<path d="M96.4909 72.0556L81.4838 72.4186L80.2333 58.2603L94.8235 57.8972L96.4909 72.0556Z" fill="#A0616A"/>
<path d="M121.92 105.817L111.564 109.992C109.829 113.576 107.437 113.473 104.411 109.811C101.523 114.216 95.3028 111.576 92.2638 109.652C90.3047 108.783 88.1379 108.327 85.9391 108.323C83.7402 108.319 81.5713 108.767 79.6081 109.629L68.5613 66.9729C71.9663 64.4235 76.5037 62.8221 80.8587 61.7089L89.4044 70.9663L95.2404 61.8905C99.2968 59.0502 104.994 59.045 111.081 59.7123L114.635 76.2593C112.291 89.3121 115.816 95.8589 121.92 105.817Z" fill="#212D5D"/>
<path d="M87.7369 162.088L78.9828 162.814L66.0144 112.899C65.7194 111.743 65.7263 110.544 66.0346 109.391C66.3428 108.238 66.9445 107.159 67.7953 106.236C68.6461 105.312 69.7242 104.567 70.9501 104.054C72.1759 103.542 73.5183 103.276 74.8779 103.276C76.1707 103.276 77.4486 103.517 78.6261 103.981C79.8035 104.446 80.8535 105.125 81.7057 105.971C82.5579 106.818 83.1926 107.813 83.5675 108.891C83.9424 109.968 84.0488 111.103 83.8795 112.219L82.3177 122.517L87.7369 162.088Z" fill="#2F2E41"/>
<path d="M113.999 162.814L122.753 162.451L135.722 112.899C136.017 111.743 136.01 110.544 135.702 109.391C135.393 108.238 134.792 107.159 133.941 106.236C133.09 105.312 132.012 104.567 130.786 104.054C129.56 103.542 128.218 103.276 126.858 103.276C125.565 103.276 124.288 103.517 123.11 103.981C121.933 104.446 120.883 105.125 120.03 105.971C119.178 106.818 118.544 107.813 118.169 108.891C117.794 109.968 117.687 111.103 117.857 112.219L119.418 122.517L113.999 162.814Z" fill="#2F2E41"/>
<path d="M142.453 91.1799L135.051 107.814C131.004 105.12 127.74 104.752 123.251 106.181C122.01 106.031 121.086 103.654 121.086 102.563C121.086 102 121.335 101.459 121.781 101.052C122.228 100.645 122.837 100.404 123.483 100.378L130.257 100.11C131.496 97.2841 132.25 94.314 132.492 91.2962C135.743 90.493 139.179 90.4529 142.453 91.1799Z" fill="#A0616A"/>
<path d="M143.18 91.6592L144.984 85.795C145.772 83.6502 145.695 81.3353 144.765 79.2341C143.835 77.133 142.108 75.3718 139.871 74.2426L111.081 59.7122L110.664 75.6857L131.924 83.6724C132.512 86.3902 132.702 89.1616 132.492 91.9209C135.808 91.0626 139.855 90.8804 143.18 91.6592Z" fill="#212D5D"/>
<path d="M98.7837 47.9137L87.5285 49.7288C86.4883 49.7288 85.4584 49.5504 84.4975 49.2038C83.5365 48.8571 82.6634 48.3491 81.9279 47.7086C81.1924 47.0681 80.609 46.3077 80.211 45.4708C79.813 44.6339 79.6081 43.737 79.6081 42.8312H99.2006L98.7837 47.9137Z" fill="#2F2E41"/>
<path d="M78.1491 51.544C78.7247 51.544 79.1912 50.7313 79.1912 49.7288C79.1912 48.7263 78.7247 47.9137 78.1491 47.9137C77.5735 47.9137 77.1069 48.7263 77.1069 49.7288C77.1069 50.7313 77.5735 51.544 78.1491 51.544Z" fill="#A0616A"/>
<path d="M112.54 78.6197H112.419V75.7316C112.419 75.5121 112.37 75.2948 112.273 75.092C112.177 74.8892 112.035 74.7049 111.857 74.5497C111.679 74.3944 111.467 74.2713 111.234 74.1873C111.001 74.1033 110.752 74.0601 110.5 74.0601H103.474C103.222 74.0601 102.972 74.1033 102.739 74.1873C102.506 74.2713 102.295 74.3944 102.116 74.5497C101.938 74.7049 101.797 74.8892 101.7 75.092C101.604 75.2948 101.554 75.5121 101.554 75.7316V91.5759C101.554 91.7954 101.604 92.0128 101.7 92.2156C101.797 92.4184 101.938 92.6027 102.116 92.7579C102.295 92.9131 102.506 93.0362 102.739 93.1202C102.972 93.2042 103.222 93.2475 103.474 93.2475H110.5C110.752 93.2475 111.001 93.2042 111.234 93.1202C111.467 93.0362 111.679 92.9131 111.857 92.7579C112.035 92.6027 112.177 92.4184 112.273 92.2156C112.37 92.0128 112.419 91.7954 112.419 91.5759V80.6755H112.54V78.6197Z" fill="#E6E6E6"/>
<path d="M106.704 80.2236C107.625 80.2236 108.372 79.5735 108.372 78.7715C108.372 77.9695 107.625 77.3194 106.704 77.3194C105.783 77.3194 105.037 77.9695 105.037 78.7715C105.037 79.5735 105.783 80.2236 106.704 80.2236Z" fill="#212D5D"/>
<path d="M105.245 92.0222C96.6702 97.8843 88.073 102.764 81.6924 103.458L80.6503 93.4744C86.7784 92.7051 94.9719 89.189 103.578 85.1246L107.787 83.2185C108.465 82.9112 109.221 82.7551 109.986 82.7644C110.751 82.7736 111.501 82.9478 112.17 83.2715C112.839 83.5951 113.405 84.0581 113.818 84.6189C114.231 85.1798 114.478 85.821 114.536 86.4853C114.619 87.4274 114.32 88.365 113.69 89.1344C113.06 89.9037 112.14 90.4558 111.09 90.6943L105.245 92.0222Z" fill="#A0616A"/>
<path d="M88.9875 103.639L71.8962 104.002C66.1452 94.177 64.0581 83.6925 65.2264 72.6222C65.2264 71.4392 65.5557 70.2739 66.1861 69.226C66.8166 68.1781 67.7293 67.279 68.8462 66.6056L70.6456 65.5208C78.3393 75.4672 83.1114 84.7038 81.484 92.3852L86.4863 92.0222C83.2468 95.8298 84.7465 99.7128 88.9875 103.639Z" fill="#212D5D"/>
<path d="M15.0353 146.513C15.0353 146.513 15.9183 129.973 34.0206 131.896L15.0353 146.513Z" fill="#E6E6E6"/>
<path d="M14.8227 202.559C14.8 202.386 12.6634 185.151 21.3148 176.03C24.5077 172.663 28.7861 170.778 34.0308 170.427L34.0886 171.077C29.0546 171.414 24.9512 173.22 21.8928 176.443C13.4438 185.35 15.5439 202.315 15.5658 202.485L14.8227 202.559Z" fill="#E6E6E6"/>
<path d="M14.8443 129.602H14.0912V202.066H14.8443V129.602Z" fill="#E6E6E6"/>
<path d="M14.5732 130.431C17.987 130.431 20.7545 128.021 20.7545 125.048C20.7545 122.075 17.987 119.664 14.5732 119.664C11.1594 119.664 8.39191 122.075 8.39191 125.048C8.39191 128.021 11.1594 130.431 14.5732 130.431Z" fill="#212D5D"/>
<path d="M34.0597 176.101C37.452 176.101 40.2019 173.706 40.2019 170.752C40.2019 167.797 37.452 165.403 34.0597 165.403C30.6675 165.403 27.9175 167.797 27.9175 170.752C27.9175 173.706 30.6675 176.101 34.0597 176.101Z" fill="#E6E6E6"/>
<path d="M214.445 26.3751C212.414 26.3751 210.43 26.8994 208.741 27.8818C207.053 28.8641 205.738 30.2604 204.961 31.8939C204.184 33.5275 203.98 35.325 204.376 37.0592C204.773 38.7934 205.75 40.3864 207.186 41.6366C208.622 42.8869 210.451 43.7384 212.442 44.0833C214.433 44.4283 216.497 44.2512 218.373 43.5746C220.249 42.8979 221.852 41.7521 222.98 40.2819C224.108 38.8117 224.71 37.0833 224.71 35.3151C224.71 34.1411 224.445 32.9786 223.929 31.8939C223.413 30.8093 222.657 29.8237 221.704 28.9936C220.75 28.1634 219.619 27.5049 218.373 27.0556C217.128 26.6064 215.793 26.3751 214.445 26.3751ZM219.174 36.1865C219.068 36.1865 218.716 36.1838 218.613 36.1783L216.59 36.1322C216.579 36.1319 216.569 36.1341 216.56 36.1384C216.55 36.1426 216.542 36.1489 216.537 36.1566L213.501 40.109C213.456 40.1707 213.394 40.2215 213.32 40.2566C213.246 40.2917 213.164 40.3101 213.08 40.3099H212.341C212.167 40.3099 212.107 40.1579 212.17 40.0167L213.731 36.1376C213.735 36.1295 213.736 36.1209 213.735 36.1123C213.734 36.1037 213.731 36.0955 213.725 36.0883C213.72 36.0811 213.712 36.0752 213.704 36.071C213.695 36.0668 213.685 36.0645 213.675 36.0643L209.882 35.991C209.842 35.9902 209.803 35.9974 209.768 36.012C209.732 36.0267 209.701 36.0483 209.676 36.0752L208.501 37.3157C208.454 37.3672 208.394 37.4088 208.326 37.4374C208.258 37.4661 208.184 37.4811 208.108 37.4813H207.588C207.568 37.4815 207.548 37.4775 207.53 37.4696C207.512 37.4618 207.497 37.4503 207.485 37.4362C207.474 37.4221 207.466 37.4057 207.463 37.3885C207.461 37.3714 207.463 37.3538 207.469 37.3374L208.089 35.4725C208.136 35.3687 208.136 35.2533 208.089 35.1495L207.469 33.2846C207.463 33.2682 207.461 33.2507 207.463 33.2335C207.466 33.2163 207.474 33.1999 207.485 33.1858C207.497 33.1717 207.512 33.1602 207.53 33.1524C207.548 33.1445 207.568 33.1405 207.588 33.1407H208.111C208.187 33.1403 208.262 33.155 208.33 33.1838C208.398 33.2125 208.457 33.2544 208.504 33.3063L209.657 34.5279C209.682 34.555 209.713 34.5767 209.749 34.5914C209.784 34.606 209.824 34.613 209.863 34.612L213.678 34.5631C213.688 34.5631 213.698 34.5609 213.707 34.5568C213.716 34.5527 213.723 34.5467 213.729 34.5395C213.734 34.5322 213.738 34.5239 213.739 34.5153C213.74 34.5066 213.738 34.4979 213.734 34.4898L212.173 30.6134C212.11 30.4723 212.17 30.3203 212.344 30.3203H213.083C213.167 30.3204 213.249 30.3389 213.323 30.374C213.396 30.4091 213.459 30.4597 213.504 30.5211L216.537 34.4763C216.542 34.4842 216.55 34.4906 216.559 34.4949C216.569 34.4993 216.579 34.5013 216.59 34.5007L218.613 34.4546C218.712 34.4491 219.068 34.4464 219.174 34.4464C220.558 34.4464 221.427 34.8373 221.427 35.3178C221.427 35.7982 220.555 36.1865 219.174 36.1865Z" fill="#3F3D56"/>
<path d="M240.495 34.8951H237.943V35.6359H240.495V34.8951Z" fill="#3F3D56"/>
<path d="M330.358 35.6359H325.365V34.8951H330.358V35.6359ZM320.373 35.6359H315.381V34.8951H320.373L320.373 35.6359ZM310.389 35.6359H305.396V34.8951H310.389V35.6359ZM300.404 35.6359H295.411V34.8951H300.404V35.6359ZM290.419 35.6359H285.426V34.8951H290.419V35.6359ZM280.434 35.6359H275.442V34.8951H280.434V35.6359ZM270.45 35.6359H265.457V34.8951H270.45V35.6359ZM260.465 35.6359H255.472V34.8951H260.465V35.6359ZM250.48 35.6359H245.488V34.8951H250.48V35.6359Z" fill="#3F3D56"/>
<path d="M337.903 34.8951H335.35V35.6359H337.903V34.8951Z" fill="#3F3D56"/>
<path d="M240.495 60.455H237.943V61.1959H240.495V60.455Z" fill="#3F3D56"/>
<path d="M330.358 61.1959H325.365V60.455H330.358V61.1959ZM320.373 61.1959H315.381V60.455H320.373L320.373 61.1959ZM310.389 61.1959H305.396V60.455H310.389V61.1959ZM300.404 61.1959H295.411V60.455H300.404V61.1959ZM290.419 61.1959H285.426V60.455H290.419V61.1959ZM280.434 61.1959H275.442V60.455H280.434V61.1959ZM270.45 61.1959H265.457V60.455H270.45V61.1959ZM260.465 61.1959H255.472V60.455H260.465V61.1959ZM250.48 61.1959H245.488V60.455H250.48V61.1959Z" fill="#3F3D56"/>
<path d="M337.903 60.455H335.35V61.1959H337.903V60.455Z" fill="#3F3D56"/>
<path d="M240.495 86.0149H237.943V86.7557H240.495V86.0149Z" fill="#3F3D56"/>
<path d="M330.358 86.7558H325.365V86.0149H330.358V86.7558ZM320.373 86.7558H315.381V86.0149H320.373L320.373 86.7558ZM310.389 86.7558H305.396V86.0149H310.389V86.7558ZM300.404 86.7558H295.411V86.0149H300.404V86.7558ZM290.419 86.7558H285.426V86.0149H290.419V86.7558ZM280.434 86.7558H275.442V86.0149H280.434V86.7558ZM270.45 86.7558H265.457V86.0149H270.45V86.7558ZM260.465 86.7558H255.472V86.0149H260.465V86.7558ZM250.48 86.7558H245.488V86.0149H250.48V86.7558Z" fill="#3F3D56"/>
<path d="M337.903 86.0149H335.35V86.7557H337.903V86.0149Z" fill="#3F3D56"/>
<path d="M214.261 52.3055C212.299 52.3055 210.38 52.8121 208.749 53.7615C207.118 54.7108 205.846 56.0601 205.095 57.6388C204.344 59.2175 204.148 60.9546 204.531 62.6305C204.913 64.3064 205.858 65.8458 207.246 67.0541C208.633 68.2624 210.401 69.0852 212.325 69.4186C214.25 69.7519 216.244 69.5808 218.057 68.9269C219.87 68.273 221.419 67.1657 222.509 65.7449C223.599 64.3241 224.181 62.6537 224.181 60.945C224.181 58.6536 223.136 56.4561 221.276 54.8359C219.415 53.2157 216.892 52.3055 214.261 52.3055ZM209.622 60.6512L210.17 58.1118C210.311 57.4218 210.679 56.8788 211.369 56.8788H212.405L212.465 56.6716C212.518 56.4908 212.639 56.3304 212.808 56.2159C212.977 56.1014 213.185 56.0393 213.399 56.0393H215.116C215.33 56.0393 215.538 56.1011 215.707 56.215C215.876 56.329 215.996 56.4887 216.05 56.669L216.11 56.8788H217.152C217.827 56.8788 218.186 57.4114 218.354 58.1092V58.1118L218.906 60.6538C218.91 60.6728 218.908 60.6925 218.901 60.7106C218.893 60.7288 218.88 60.7448 218.862 60.7567C218.845 60.7687 218.824 60.7762 218.802 60.7784C218.779 60.7806 218.757 60.7774 218.737 60.7692L217.972 60.4623C217.954 60.4558 217.938 60.4454 217.926 60.4321C217.914 60.4188 217.906 60.403 217.903 60.3862L217.415 58.1406C217.324 57.8521 217.198 57.7209 216.93 57.7209H211.595C211.33 57.7209 211.185 57.8599 211.11 58.1406L210.622 60.3862C210.618 60.4028 210.61 60.4184 210.598 60.4316C210.586 60.4448 210.57 60.4554 210.552 60.4623L209.79 60.7666C209.77 60.7746 209.748 60.7775 209.726 60.7752C209.704 60.7729 209.683 60.7654 209.666 60.7535C209.648 60.7416 209.635 60.7257 209.627 60.7077C209.619 60.6897 209.618 60.6701 209.622 60.6512ZM220.246 62.2855L218.598 65.8507C217.979 65.7968 217.389 65.5972 216.89 65.2735C216.132 65.5538 215.324 65.7188 214.502 65.7615C214.417 65.7641 214.336 65.7667 214.261 65.7667C214.185 65.7667 214.104 65.7667 214.02 65.7615C213.197 65.7175 212.39 65.5525 211.631 65.2735C211.132 65.5972 210.542 65.7968 209.923 65.8507L208.275 62.2855C208.25 62.2296 208.236 62.17 208.236 62.1098C208.236 62.0192 208.266 61.9306 208.322 61.8544C208.378 61.7781 208.458 61.7175 208.552 61.6795L214.158 59.4366C214.19 59.4236 214.224 59.4169 214.259 59.4169C214.294 59.4169 214.328 59.4236 214.36 59.4366L219.969 61.6795C220.063 61.7175 220.143 61.7781 220.199 61.8544C220.255 61.9306 220.285 62.0192 220.285 62.1098C220.285 62.17 220.271 62.2296 220.246 62.2855Z" fill="#3F3D56"/>
<path d="M217.836 84.3085H214.852C214.82 84.3086 214.789 84.3198 214.766 84.3397C214.743 84.3595 214.73 84.3865 214.73 84.4146V88.1269C214.73 88.155 214.743 88.182 214.766 88.2018C214.789 88.2217 214.82 88.2329 214.852 88.233H217.836C217.965 88.2327 218.089 88.1879 218.18 88.1084C218.271 88.0289 218.323 87.9212 218.323 87.8087V84.7328C218.323 84.6204 218.271 84.5126 218.18 84.4331C218.089 84.3536 217.965 84.3088 217.836 84.3085Z" fill="#3F3D56"/>
<path d="M217.166 89.0285C216.977 89.0415 216.802 89.1177 216.676 89.241C216.55 89.3644 216.484 89.5253 216.492 89.6901C216.499 89.8549 216.58 90.0108 216.716 90.1251C216.853 90.2394 217.035 90.3033 217.224 90.3033C217.413 90.3033 217.596 90.2394 217.732 90.1251C217.869 90.0108 217.949 89.8549 217.957 89.6901C217.964 89.5253 217.898 89.3644 217.772 89.241C217.646 89.1177 217.471 89.0415 217.282 89.0285C217.243 89.0259 217.205 89.0259 217.166 89.0285Z" fill="#3F3D56"/>
<path d="M211.323 89.0285C211.134 89.0415 210.959 89.1177 210.833 89.241C210.707 89.3644 210.641 89.5253 210.649 89.6901C210.656 89.8549 210.737 90.0108 210.873 90.1251C211.01 90.2394 211.192 90.3033 211.381 90.3033C211.57 90.3033 211.752 90.2394 211.889 90.1251C212.026 90.0108 212.106 89.8549 212.113 89.6901C212.121 89.5253 212.055 89.3644 211.929 89.241C211.803 89.1177 211.628 89.0415 211.439 89.0285C211.4 89.0259 211.362 89.0259 211.323 89.0285Z" fill="#3F3D56"/>
<path d="M213.756 84.3085H210.778C210.647 84.3089 210.522 84.3543 210.43 84.4348C210.337 84.5153 210.285 84.6243 210.285 84.7381V87.8034C210.285 87.9172 210.337 88.0262 210.43 88.1067C210.522 88.1872 210.647 88.2326 210.778 88.233H213.756C213.788 88.2329 213.819 88.2217 213.842 88.2018C213.865 88.182 213.878 88.155 213.878 88.1269V84.4146C213.878 84.3865 213.865 84.3595 213.842 84.3397C213.819 84.3198 213.788 84.3086 213.756 84.3085Z" fill="#3F3D56"/>
<path d="M214.304 77.9091C212.321 77.9091 210.382 78.4213 208.733 79.3808C207.084 80.3404 205.799 81.7043 205.04 83.3C204.281 84.8958 204.082 86.6517 204.469 88.3457C204.856 90.0397 205.811 91.5958 207.213 92.8171C208.616 94.0384 210.403 94.8701 212.348 95.2071C214.293 95.544 216.309 95.3711 218.142 94.7101C219.974 94.0492 221.54 92.9298 222.642 91.4937C223.744 90.0576 224.332 88.3692 224.332 86.642C224.332 84.3259 223.275 82.1046 221.395 80.4669C219.514 78.8292 216.964 77.9091 214.304 77.9091ZM219.176 90.1952C219.175 90.4763 219.046 90.7456 218.818 90.9443C218.59 91.1431 218.281 91.2551 217.958 91.2559H210.65C210.328 91.2551 210.018 91.1431 209.79 90.9443C209.562 90.7456 209.433 90.4763 209.432 90.1952V82.8766C209.433 82.6518 209.536 82.4363 209.719 82.2773C209.901 82.1183 210.148 82.0287 210.407 82.0281H218.202C218.46 82.0287 218.707 82.1183 218.89 82.2773C219.072 82.4363 219.175 82.6518 219.176 82.8766V90.1952Z" fill="#3F3D56"/>
<path d="M217.867 82.7705H210.742C210.683 82.767 210.624 82.774 210.569 82.7911C210.514 82.8081 210.463 82.8349 210.421 82.8697C210.378 82.9046 210.344 82.9467 210.32 82.9935C210.297 83.0403 210.285 83.0907 210.285 83.1418C210.285 83.1928 210.297 83.2433 210.32 83.2901C210.344 83.3369 210.378 83.379 210.421 83.4138C210.463 83.4486 210.514 83.4754 210.569 83.4925C210.624 83.5095 210.683 83.5165 210.742 83.513H217.867C217.925 83.5165 217.984 83.5095 218.039 83.4925C218.094 83.4754 218.145 83.4486 218.188 83.4138C218.23 83.379 218.265 83.3369 218.288 83.2901C218.311 83.2433 218.323 83.1928 218.323 83.1418C218.323 83.0907 218.311 83.0403 218.288 82.9935C218.265 82.9467 218.23 82.9046 218.188 82.8697C218.145 82.8349 218.094 82.8081 218.039 82.7911C217.984 82.774 217.925 82.767 217.867 82.7705Z" fill="#3F3D56"/>
<path d="M352.79 40.822C351.528 40.822 350.295 40.4961 349.245 39.8856C348.196 39.275 347.378 38.4072 346.896 37.3919C346.413 36.3766 346.286 35.2594 346.532 34.1815C346.779 33.1036 347.386 32.1136 348.279 31.3365C349.171 30.5594 350.308 30.0302 351.546 29.8158C352.783 29.6014 354.066 29.7114 355.232 30.132C356.398 30.5525 357.394 31.2647 358.095 32.1785C358.796 33.0923 359.171 34.1665 359.171 35.2655C359.169 36.7387 358.496 38.1511 357.3 39.1927C356.104 40.2344 354.482 40.8204 352.79 40.822ZM352.79 30.4499C351.697 30.4499 350.627 30.7323 349.718 31.2615C348.809 31.7906 348.1 32.5427 347.681 33.4227C347.263 34.3026 347.153 35.2709 347.367 36.205C347.58 37.1391 348.107 37.9972 348.88 38.6707C349.654 39.3442 350.639 39.8028 351.711 39.9886C352.784 40.1744 353.896 40.0791 354.906 39.7146C355.917 39.3501 356.78 38.7329 357.388 37.9409C357.996 37.149 358.32 36.218 358.32 35.2655C358.318 33.9888 357.735 32.7647 356.698 31.8619C355.662 30.9592 354.256 30.4513 352.79 30.4499Z" fill="#212D5D"/>
<path d="M355.218 33.6753L354.616 33.1516L352.79 34.7418L350.964 33.1516L350.363 33.6753L352.189 35.2656L350.363 36.8559L350.964 37.3797L352.79 35.7894L354.616 37.3797L355.218 36.8559L353.392 35.2656L355.218 33.6753Z" fill="#212D5D"/>
<path d="M352.79 66.3819C351.528 66.3819 350.295 66.056 349.245 65.4455C348.196 64.8349 347.378 63.9671 346.896 62.9518C346.413 61.9365 346.286 60.8192 346.532 59.7414C346.779 58.6635 347.386 57.6735 348.279 56.8964C349.171 56.1193 350.308 55.5901 351.546 55.3757C352.783 55.1613 354.066 55.2713 355.232 55.6919C356.398 56.1124 357.394 56.8246 358.095 57.7384C358.796 58.6521 359.171 59.7264 359.171 60.8254C359.169 62.2986 358.496 63.711 357.3 64.7526C356.104 65.7943 354.482 66.3803 352.79 66.3819ZM352.79 56.0098C351.697 56.0098 350.627 56.2922 349.718 56.8214C348.809 57.3505 348.1 58.1026 347.681 58.9826C347.263 59.8625 347.153 60.8308 347.367 61.7649C347.58 62.699 348.107 63.5571 348.88 64.2306C349.654 64.9041 350.639 65.3627 351.711 65.5485C352.784 65.7343 353.896 65.639 354.906 65.2745C355.917 64.91 356.78 64.2928 357.388 63.5008C357.996 62.7089 358.32 61.7779 358.32 60.8254C358.318 59.5487 357.735 58.3246 356.698 57.4218C355.662 56.519 354.256 56.0112 352.79 56.0098Z" fill="#212D5D"/>
<path d="M355.218 59.2352L354.616 58.7115L352.79 60.3017L350.964 58.7115L350.363 59.2352L352.189 60.8255L350.363 62.4158L350.964 62.9396L352.79 61.3493L354.616 62.9396L355.218 62.4158L353.392 60.8255L355.218 59.2352Z" fill="#212D5D"/>
<path d="M352.79 91.9418C351.528 91.9418 350.295 91.6159 349.245 91.0054C348.196 90.3948 347.378 89.527 346.896 88.5117C346.413 87.4964 346.286 86.3791 346.532 85.3013C346.779 84.2234 347.386 83.2334 348.279 82.4563C349.171 81.6792 350.308 81.15 351.546 80.9356C352.783 80.7212 354.066 80.8312 355.232 81.2518C356.398 81.6723 357.394 82.3845 358.095 83.2983C358.796 84.212 359.171 85.2863 359.171 86.3853C359.169 87.8585 358.496 89.2709 357.3 90.3126C356.104 91.3543 354.482 91.9402 352.79 91.9418ZM352.79 81.5697C351.697 81.5697 350.627 81.8521 349.718 82.3812C348.809 82.9104 348.1 83.6625 347.681 84.5424C347.263 85.4224 347.153 86.3906 347.367 87.3248C347.58 88.2589 348.107 89.117 348.88 89.7905C349.654 90.4639 350.639 90.9226 351.711 91.1084C352.784 91.2942 353.896 91.1989 354.906 90.8344C355.917 90.4699 356.78 89.8527 357.388 89.0607C357.996 88.2688 358.32 87.3377 358.32 86.3853C358.318 85.1086 357.735 83.8845 356.698 82.9817C355.662 82.0789 354.256 81.5711 352.79 81.5697Z" fill="#212D5D"/>
<path d="M355.218 84.7952L354.616 84.2714L352.79 85.8616L350.964 84.2714L350.363 84.7952L352.189 86.3854L350.363 87.9757L350.964 88.4995L352.79 86.9092L354.616 88.4995L355.218 87.9757L353.392 86.3854L355.218 84.7952Z" fill="#212D5D"/>
</g>
<defs>
<clipPath id="clip0_7_2387">
<rect width="379" height="207" fill="white"/>
</clipPath>
</defs>
</svg>
