<svg width="20" height="20" viewBox="0 0 20 20" fill="none" xmlns="http://www.w3.org/2000/svg">
<path fill-rule="evenodd" clip-rule="evenodd" d="M9.16666 1.66675C5.02452 1.66675 1.66666 5.02461 1.66666 9.16675C1.66666 13.3089 5.02452 16.6667 9.16666 16.6667C10.9375 16.6667 12.565 16.053 13.8481 15.0267L16.9107 18.0893C17.2362 18.4148 17.7638 18.4148 18.0892 18.0893C18.4147 17.7639 18.4147 17.2363 18.0892 16.9108L15.0266 13.8482C16.0529 12.5651 16.6667 10.9376 16.6667 9.16675C16.6667 5.02461 13.3088 1.66675 9.16666 1.66675ZM3.33332 9.16675C3.33332 5.94509 5.945 3.33341 9.16666 3.33341C12.3883 3.33341 15 5.94509 15 9.16675C15 12.3884 12.3883 15.0001 9.16666 15.0001C5.945 15.0001 3.33332 12.3884 3.33332 9.16675Z" fill="#939393"/>
</svg>
