<svg width="25" height="24" viewBox="0 0 25 24" fill="none" xmlns="http://www.w3.org/2000/svg">
<path d="M24.0515 3.49925C24.0515 3.85625 23.9125 4.19125 23.6595 4.44425L21.2505 6.85325C21.0555 7.04825 20.7385 7.04825 20.5435 6.85325C20.3485 6.65825 20.3485 6.34125 20.5435 6.14625L22.6895 4.00025H12.0255C7.6145 4.00025 4.0255 7.58925 4.0255 12.0003C4.0255 13.8963 4.7005 15.7343 5.9255 17.1763C6.1045 17.3873 6.0785 17.7022 5.8685 17.8813C5.6595 18.0592 5.3425 18.0353 5.1635 17.8243C3.7845 16.2013 3.0245 14.1333 3.0245 12.0003C3.0255 7.03725 7.0635 2.99925 12.0255 2.99925H22.6915L20.5455 0.85325C20.3505 0.65825 20.3505 0.34125 20.5455 0.14625C20.7405 -0.04875 21.0575 -0.04875 21.2525 0.14625L23.6615 2.55525C23.9135 2.80725 24.0535 3.14325 24.0535 3.50025L24.0515 3.49925ZM18.2035 6.14025C17.9925 6.31825 17.9655 6.63425 18.1435 6.84525C19.3565 8.28425 20.0255 10.1153 20.0255 12.0003C20.0255 16.4113 16.4365 20.0002 12.0255 20.0002H1.3595L3.5065 17.8542C3.7015 17.6593 3.7015 17.3423 3.5065 17.1473C3.3115 16.9523 2.9945 16.9523 2.7995 17.1473L0.3915 19.5533C-0.1305 20.0743 -0.1305 20.9243 0.3915 21.4463L2.7995 23.8533C2.9945 24.0483 3.3115 24.0483 3.5065 23.8533C3.7015 23.6583 3.7015 23.3412 3.5065 23.1462L1.3595 21.0002H12.0255C16.9875 21.0002 21.0255 16.9633 21.0255 12.0003C21.0255 9.87925 20.2735 7.82025 18.9085 6.20125C18.7295 5.99025 18.4155 5.96225 18.2035 6.14125V6.14025ZM8.0255 12.4993C7.7495 12.4993 7.5255 12.7233 7.5255 12.9993C7.5255 13.2753 7.7495 13.4993 8.0255 13.4993H9.0255C9.0255 15.4293 10.5955 16.9993 12.5255 16.9993C14.0065 16.9993 15.3335 16.0613 15.8265 14.6663C15.9185 14.4053 15.7815 14.1193 15.5215 14.0273C15.2605 13.9353 14.9755 14.0723 14.8835 14.3323C14.5315 15.3293 13.5845 15.9993 12.5265 15.9993C11.1485 15.9993 10.0265 14.8783 10.0265 13.4993H12.0265C12.3025 13.4993 12.5265 13.2753 12.5265 12.9993C12.5265 12.7233 12.3025 12.4993 12.0265 12.4993H10.0265V11.4993H12.0265C12.3025 11.4993 12.5265 11.2753 12.5265 10.9993C12.5265 10.7233 12.3025 10.4993 12.0265 10.4993H10.0265C10.0265 9.12125 11.1485 7.99925 12.5265 7.99925C13.5845 7.99925 14.5315 8.66925 14.8835 9.66625C14.9765 9.92725 15.2615 10.0623 15.5215 9.97125C15.7815 9.87925 15.9185 9.59325 15.8265 9.33325C15.3335 7.93725 14.0065 7.00025 12.5255 7.00025C10.5955 7.00025 9.0255 8.57025 9.0255 10.5003H8.0255C7.7495 10.5003 7.5255 10.7243 7.5255 11.0003C7.5255 11.2763 7.7495 11.5003 8.0255 11.5003H9.0255V12.5003H8.0255V12.4993Z" fill="black"/>
</svg>
