<svg width="15" height="12" viewBox="0 0 15 12" fill="none" xmlns="http://www.w3.org/2000/svg">
<path d="M11.7719 0.771484H3.5019C1.87331 0.771484 0.54834 2.09645 0.54834 3.72504V8.45074C0.54834 10.0793 1.87331 11.4043 3.5019 11.4043H11.7719C13.4005 11.4043 14.7254 10.0793 14.7254 8.45074V3.72504C14.7254 2.09645 13.4005 0.771484 11.7719 0.771484ZM7.18381 5.97802L6.13588 6.8316L6.56947 8.15184C6.62854 8.33023 6.56888 8.52694 6.41943 8.64213C6.26998 8.75673 6.06441 8.765 5.90728 8.66221L4.68746 7.86771L3.48772 8.67048C3.41329 8.72069 3.32705 8.7455 3.2414 8.7455C3.14747 8.7455 3.05414 8.71597 2.97558 8.6569C2.82494 8.54407 2.76233 8.34855 2.81845 8.16956L3.23549 6.83337L2.18225 5.97625C2.04048 5.85574 1.98909 5.66022 2.05288 5.48596C2.11668 5.3117 2.28267 5.19592 2.46874 5.19592H3.79844L4.26923 3.87568C4.33362 3.7026 4.49961 3.58741 4.6845 3.58741C4.8694 3.58741 5.03539 3.7026 5.09977 3.87568L5.57057 5.19592H6.90026C7.08634 5.19592 7.25292 5.31229 7.31672 5.48714C7.38051 5.66199 7.32794 5.8581 7.18558 5.97802H7.18381ZM10.5904 9.04145H9.40902C9.08294 9.04145 8.81831 8.7774 8.81831 8.45074C8.81831 8.12407 9.08294 7.86003 9.40902 7.86003H10.5904C10.9165 7.86003 11.1812 8.12407 11.1812 8.45074C11.1812 8.7774 10.9165 9.04145 10.5904 9.04145ZM12.3626 6.6786H9.40902C9.08294 6.6786 8.81831 6.41455 8.81831 6.08789C8.81831 5.76123 9.08294 5.49718 9.40902 5.49718H12.3626C12.6887 5.49718 12.9533 5.76123 12.9533 6.08789C12.9533 6.41455 12.6887 6.6786 12.3626 6.6786ZM12.3626 4.31576H9.40902C9.08294 4.31576 8.81831 4.05171 8.81831 3.72504C8.81831 3.39838 9.08294 3.13433 9.40902 3.13433H12.3626C12.6887 3.13433 12.9533 3.39838 12.9533 3.72504C12.9533 4.05171 12.6887 4.31576 12.3626 4.31576Z" fill="white"/>
</svg>
